<svg id="Layer_1" data-name="Layer 1" xmlns="http://www.w3.org/2000/svg" viewBox="0 0 686 290"><defs><style>.cls-1{fill:#fff;}.cls-2{fill:#2a6e9a;}</style></defs><title>memory-serves-logo</title><rect class="cls-1" x="5" y="5" width="676" height="280"/><path class="cls-2" d="M686,290H0V0H686ZM10,280H676V10H10Z"/><path class="cls-2" d="M155.89,128.49c.17.44.06.65-.33.65h-1a1.1,1.1,0,0,1,.19,1,2.55,2.55,0,0,1-.52.71c-.21.22-.43.46-.65.72a1.4,1.4,0,0,0-.32.91,4.41,4.41,0,0,0-2.47.06,11.73,11.73,0,0,0-1.42,1.88,7.62,7.62,0,0,0-2.21.78,2.48,2.48,0,0,1-1.49-.58c-.31-.3-.93-.37-1.89-.2.18-1-.21-1.42-1.16-1.42a8.17,8.17,0,0,0,.06-1.69c0-.52-.41-.91-1.1-1.17a1.36,1.36,0,0,0,.26-1.75,3.26,3.26,0,0,1-.39-2,1.54,1.54,0,0,1,.13-.59,2,2,0,0,0,.13-.71c-.35-.69-.41-1.12-.2-1.3a.79.79,0,0,0,.33-.65,24.24,24.24,0,0,0,.52-4.61v-3.82c0-.35-.09-.57-.26-.65a6.9,6.9,0,0,1-.65-.39q0-.65.45-.78a.84.84,0,0,0,.59-.65,3.2,3.2,0,0,0-.2-1.69,3.09,3.09,0,0,1-.19-1.69,4.49,4.49,0,0,0,.06-2.53A2.2,2.2,0,0,1,142,105a2,2,0,0,1,.19-.91,1.74,1.74,0,0,0,.2-.78,3,3,0,0,0-.13-.9,2.36,2.36,0,0,1-.13-.78,6.3,6.3,0,0,1,.13-1.3,7.16,7.16,0,0,0,.13-1.3,6.1,6.1,0,0,0-.13-1.23,2,2,0,0,0-.52-1,5.69,5.69,0,0,0,.39-3.37,12.2,12.2,0,0,1,0-3.64c.26-1,.28-1.68.06-1.94A1,1,0,0,1,142,87a2,2,0,0,1,.19-.91,2,2,0,0,0,.2-.91,2.15,2.15,0,0,0-.33-1.17,1.54,1.54,0,0,1-.19-1.16,7.72,7.72,0,0,0-.07-4.16,3.73,3.73,0,0,1,.07-3,1.06,1.06,0,0,0-.26-.78,3.61,3.61,0,0,1-.52-.65c.08-.86,0-1.41-.2-1.62a3.19,3.19,0,0,1-.58-1.37,10.6,10.6,0,0,1-.06-3.89,8.48,8.48,0,0,0-.2-3.76,3,3,0,0,0-.65-1,1.08,1.08,0,0,1-.13-1.17,4.12,4.12,0,0,0-1.17.71,3.76,3.76,0,0,1-1.16.72,3.32,3.32,0,0,1-.33,1.62,2.49,2.49,0,0,0-.06,1.75,3.13,3.13,0,0,1-1.3,1.3l-.78,2.6a.87.87,0,0,1-.45.39,1.52,1.52,0,0,0-.59.39l-.65,1.68a1.3,1.3,0,0,0-.06.72,3.17,3.17,0,0,1,.06.58,2.59,2.59,0,0,1-.32,1,9.62,9.62,0,0,1-.85,1.36l-1,1.36a9.06,9.06,0,0,0-.58.91,4.46,4.46,0,0,1-1.17,1.5,1.08,1.08,0,0,0-.52.45.93.93,0,0,0-.26.71,1.71,1.71,0,0,1-.13.72,11.17,11.17,0,0,1-1,1.75A3.28,3.28,0,0,1,125.64,85a4.92,4.92,0,0,1-.13,1.11c-.08.39-.39.58-.91.58a2.69,2.69,0,0,1-.51,2.34,1.45,1.45,0,0,0-.26,1.81,1.32,1.32,0,0,0-1,.33,5,5,0,0,0-.58.71l-.52.78a1.26,1.26,0,0,1-.78.52,3.4,3.4,0,0,1,.07,1.75,1.52,1.52,0,0,1-1.24,1.23,7.09,7.09,0,0,1-.26,1,1.62,1.62,0,0,0,.13,1,1.17,1.17,0,0,0-.91,1.23,2.21,2.21,0,0,1-1,1.76,2.64,2.64,0,0,1-.07,1.81,3.82,3.82,0,0,0-.45,1.56,4.69,4.69,0,0,0-1.88,1.88,11.75,11.75,0,0,0-1.37,2.4c-.78.35-1.17.65-1.17.91a2.36,2.36,0,0,1-.13.78l-.51.52-.52.52a5.92,5.92,0,0,0-.46,2q-.06,1.11-.06,2a.73.73,0,0,0-.72.39,1.64,1.64,0,0,1-.58.65c0,.44,0,1-.07,1.69a1.66,1.66,0,0,1-.71,1.43,2.64,2.64,0,0,1-.13,2.4,3.61,3.61,0,0,0-.39,2.4,11.34,11.34,0,0,0-2,1.62,10.16,10.16,0,0,1-2.08,1.62,5.45,5.45,0,0,1-2.27.78,3.32,3.32,0,0,1-2.46-.91.69.69,0,0,0-.65.07,1.06,1.06,0,0,1-.65.19,3.85,3.85,0,0,1-1.37-.26,1.88,1.88,0,0,0-1.36,0,6,6,0,0,0-.78-2.4,4.17,4.17,0,0,1-.52-2.53,1.38,1.38,0,0,1,.33-.91A1.4,1.4,0,0,0,95,121a4.58,4.58,0,0,0-.19-2,3.58,3.58,0,0,0-1.11-1.62c-.08-.69-.17-1.43-.26-2.21a2.45,2.45,0,0,0-1-1.81,4.78,4.78,0,0,0-.52-2.73,10.18,10.18,0,0,0-1.69-2.2,4.93,4.93,0,0,0-.32-1.17c-.22-.61-.48-1.24-.78-1.88s-.61-1.26-.91-1.82-.5-.93-.59-1.1a7.93,7.93,0,0,1-.45-1.17.75.75,0,0,0-1-.52c.08-1.21-.22-1.93-.91-2.14a3.18,3.18,0,0,1-1.69-1.24,10.55,10.55,0,0,1-1.3-2.27,6.89,6.89,0,0,0-1.56-2.27A2.74,2.74,0,0,0,79.89,91a7.84,7.84,0,0,0-1.75-1.17c.17-.69.13-1.14-.13-1.36a1.18,1.18,0,0,1-.39-1,3.4,3.4,0,0,0-1.1-1.1c-.48-.31-.93-.59-1.37-.85a4.65,4.65,0,0,0-1.42-2.66A6.26,6.26,0,0,1,72,80.21a6.42,6.42,0,0,0-1.1-1.1c-.65-.56-1.06-.85-1.24-.85a1.92,1.92,0,0,0-.26-1.81,2.16,2.16,0,0,1-.52-1.56,2.19,2.19,0,0,1-.71-.84,7.08,7.08,0,0,1-.32-.91,2.28,2.28,0,0,0-.46-.85,1.78,1.78,0,0,0-1.1-.52c-.18-.69-.33-1.29-.46-1.81s-.67-.87-1.62-1a2.11,2.11,0,0,0-.32-1.23,4.8,4.8,0,0,0-.78-.85A7.5,7.5,0,0,1,62.3,66a1.62,1.62,0,0,1-.38-1.1,4.25,4.25,0,0,1,0,2.53,3.84,3.84,0,0,0-.39,1.62c0,.43.15.67.45.71s.45.28.45.72A2.48,2.48,0,0,1,62,71.77a2.62,2.62,0,0,0-.38,1.3,11.4,11.4,0,0,1-.07,3.64c-.22,1.21-.11,2,.33,2.33a1,1,0,0,1-.39.91,2,2,0,0,0-.65.78,1.69,1.69,0,0,1,.19,1,2.56,2.56,0,0,0,.07,1,3.94,3.94,0,0,0,.32.9,1.74,1.74,0,0,1,.2.78,15.62,15.62,0,0,1-.39,3.25,3.2,3.2,0,0,0,.65,3,1.46,1.46,0,0,0-.13,1.56,3.58,3.58,0,0,1,.38,1.56c-.08.26-.17.52-.25.78a2.77,2.77,0,0,0-.13.91,12.18,12.18,0,0,0-.07,2.2,13.32,13.32,0,0,1-.06,2.21,6.1,6.1,0,0,1-.13,1.23,5.48,5.48,0,0,0-.13,1.24c0,.43.17.69.52.77s.43.35.25.78c-1.12,1.13-1.49,2.1-1.1,2.92a2.49,2.49,0,0,1-.06,2.4l-.65,1.43a4.61,4.61,0,0,1,.39,2.79,25.32,25.32,0,0,0-.39,2.79,6.4,6.4,0,0,0,.19,1.56,3.91,3.91,0,0,1,.07,1.56,4,4,0,0,0,.06,2.27,2.47,2.47,0,0,1,.33,1.23,10.18,10.18,0,0,1-.52,1.82,1.47,1.47,0,0,0,.26,1.69,4.39,4.39,0,0,0-.91,1.75,8.3,8.3,0,0,1-.78,1.88,1.82,1.82,0,0,1,.06,2.21,12,12,0,0,1-1.49,1.81c-1,0-1.6,0-1.94-.06s-.57.54-.65,1.75a4,4,0,0,0-1.37.59,2.73,2.73,0,0,1-1.49.45,1.82,1.82,0,0,1-1.62-.91,2,2,0,0,0-2-.78.87.87,0,0,0,.06-.52.46.46,0,0,0-.32-.19,1,1,0,0,1-.52-.33,1.44,1.44,0,0,1-.26-1c-.87-1.47-1.11-2.49-.72-3a3.07,3.07,0,0,0,.59-1.76,3.85,3.85,0,0,0-.13-1c-.09-.3.08-.58.52-.84a1.14,1.14,0,0,0,.06-1,1.91,1.91,0,0,1-.19-1c.6-.86.86-1.49.78-1.88a4.48,4.48,0,0,1-.13-1c.26-.69.3-1.12.13-1.29a.87.87,0,0,1-.26-.65,9.21,9.21,0,0,1,.78-3.64,9.11,9.11,0,0,0,.77-3.63,2.36,2.36,0,0,0-.19-1,4,4,0,0,1-.32-.91,5,5,0,0,1-.07-2.14,2.44,2.44,0,0,0,.2-1,17.66,17.66,0,0,0,.13-2v-2q.26-3.37.45-6.42a16.61,16.61,0,0,0-1-6.43,7.13,7.13,0,0,1,.84-.77c.13-.09.24-.44.32-1a9.83,9.83,0,0,0-.26-2.21,2.89,2.89,0,0,1,.39-2.21,1.59,1.59,0,0,0-.32-1,2.16,2.16,0,0,1-.45-.91,13.31,13.31,0,0,1,.77-3.38,4.67,4.67,0,0,1-.32-1.23,1.41,1.41,0,0,0-.58-1,62.37,62.37,0,0,0,1.16-9.09,37.2,37.2,0,0,0,0-4.48,26.6,26.6,0,0,1,.13-4.47,2.48,2.48,0,0,1,.33-1,2.17,2.17,0,0,1,.71-.91c-.52-.61-.71-1.06-.58-1.36a3.12,3.12,0,0,0,.06-1.5,3.67,3.67,0,0,0-.06-1.68,4.82,4.82,0,0,1-.33-.91A3.14,3.14,0,0,1,50.69,50a4.06,4.06,0,0,1,.45-1.36,12.25,12.25,0,0,1-.45-1.82.82.82,0,0,1,.13-.71,4.51,4.51,0,0,1,.45-.39,1.61,1.61,0,0,0,.39-1,2.25,2.25,0,0,0,2.27.06,5.07,5.07,0,0,1,2.4-.58,6.23,6.23,0,0,1,2.21.39,4.24,4.24,0,0,0,2.34.13c.08.26.54.69,1.36,1.29s1.36,1,1.62,1.17A5.82,5.82,0,0,0,65.22,50,20.65,20.65,0,0,1,67,52.3a1.23,1.23,0,0,0,.58.52,1.89,1.89,0,0,1,.59.39,11.58,11.58,0,0,0,.06,1.3,3,3,0,0,0,.45,1.17c.52.78.87,1.17,1,1.17a.74.74,0,0,1,.52.26.88.88,0,0,1,.2.65c0,.17.15.43.58.78a6.54,6.54,0,0,1,1.36,1.62c.48.73.89,1.32,1.24,1.75a2.4,2.4,0,0,0,.71.71c.13.05.19.37.19,1a.62.62,0,0,0,.46.65,1.2,1.2,0,0,1,.71.52,1.86,1.86,0,0,0,.72,1.16,1.86,1.86,0,0,1,.71.78.69.69,0,0,1,.13.72.67.67,0,0,0,.13.71c.6.52.86.82.78.91a.53.53,0,0,0-.13.39c-.09.26.11.6.58,1a3.62,3.62,0,0,0,1.11.77,5.3,5.3,0,0,1,.19.85,1.9,1.9,0,0,0,.33.84c.34.44.58.54.71.33s.19.15.19,1.1c0,.09.15.3.46.65s.63.73,1,1.17a13.46,13.46,0,0,0,1,1.16l.65.65a2,2,0,0,0,1,2.08,9.51,9.51,0,0,1,2,1.56,2.76,2.76,0,0,1,.72,1.1,1.37,1.37,0,0,0,1,.84,28.12,28.12,0,0,1,1.3,4.55,5.49,5.49,0,0,1,1.82,2A4.2,4.2,0,0,0,94.1,92a2.42,2.42,0,0,0,.46,1.75,1.22,1.22,0,0,1-.07,1.63,1,1,0,0,0,.85.71,1.55,1.55,0,0,1,1,.45,3,3,0,0,1,.52.85,5.31,5.31,0,0,0,.65,1.1,15.37,15.37,0,0,1,1.17,1.43,3.74,3.74,0,0,1,.71,1.49,2.68,2.68,0,0,0,1,1.49,1.66,1.66,0,0,0-.06,1.5,6.49,6.49,0,0,0,.84,1.36c.61.17,1.26-.15,2-1a3.63,3.63,0,0,0,1-2.15A2.44,2.44,0,0,0,106,101.3a7.24,7.24,0,0,0,.65-2.53,6,6,0,0,0,2.73-4.54,53.34,53.34,0,0,0,2.47-4.8,17.59,17.59,0,0,1,2.33-3.9c-.17-.69-.06-1.17.33-1.43a1.35,1.35,0,0,0,.45-1.42,2.11,2.11,0,0,0,1.69-1.3A2.33,2.33,0,0,1,118.12,80a1.33,1.33,0,0,1,.06-1.23,10.48,10.48,0,0,1,.71-1.11l.13-1.29c-.17-.52,0-.74.39-.65s.74,0,.91-.26a6.52,6.52,0,0,0,1.24-2.6A23.43,23.43,0,0,0,122,70c.08-.44.24-.67.45-.72s.41-.23.59-.58a23.65,23.65,0,0,1,1.1-2.6,8.48,8.48,0,0,1,1.62-2.2c.18-.44.18-.74,0-.91a1.06,1.06,0,0,1-.26-.78,1.26,1.26,0,0,1,.52-.78q.39-.26,0-1.17a10.05,10.05,0,0,1,1.37-1.56,3.41,3.41,0,0,0,1-1.81,1.49,1.49,0,0,0,1.23-1.17,1.81,1.81,0,0,1,1-1.3,4.25,4.25,0,0,1-.07-1.23c0-.3.11-.67.2-1.1.69-.7,1-1.19.9-1.5a1.36,1.36,0,0,1,.13-1,4.14,4.14,0,0,0,1-.84,1.87,1.87,0,0,1,1.17-.59,1.25,1.25,0,0,0,0-.84c-.09-.13,0-.41.13-.85a2.31,2.31,0,0,0,1.49-1,1.94,1.94,0,0,1,1.75-.71,1.34,1.34,0,0,0,.33-.78,8.12,8.12,0,0,0,.06-.91,3.45,3.45,0,0,1,1.24-.26h1.23a4.84,4.84,0,0,1,2.92.39,7.37,7.37,0,0,0,3.18.65,7.46,7.46,0,0,0,.45,1.82c.22.51.41,1,.59,1.55a24,24,0,0,1,.65,3.12,5.74,5.74,0,0,0,1.56,2.85l-.13,1.43a1.52,1.52,0,0,1,.45.91,1,1,0,0,0,.71.78,1.89,1.89,0,0,0-.19,2,9.32,9.32,0,0,1,.71,1.94l-.78,1.17a5.16,5.16,0,0,1,.33,1.56,1.21,1.21,0,0,0,.84,1.17c-.6.69-.73,1.32-.39,1.88a3.48,3.48,0,0,1,.52,1.88l-.26.58a2.09,2.09,0,0,0-.13.72,3.17,3.17,0,0,0,.26.91,3.49,3.49,0,0,1,.26,1.29,38.82,38.82,0,0,1,.46,4c0,1,.06,2.07.06,3.11a1,1,0,0,0,.39.91l.78.52a.44.44,0,0,1-.2.58c-.21.13-.28.42-.19.85a1.15,1.15,0,0,1,.32.65c.05.26.24.39.59.39a7.26,7.26,0,0,0-.13,4.09,11.73,11.73,0,0,1,.39,3.82,1.23,1.23,0,0,1-.39.59,1.07,1.07,0,0,0-.39.58,1.88,1.88,0,0,0,.13.72,1.7,1.7,0,0,1,.13.58,1.33,1.33,0,0,1-.2.71,1.19,1.19,0,0,0-.19.59.92.92,0,0,0,.65.91c.43.17.6.39.52.65a2,2,0,0,1-.52.9c-.35.44-.18.7.52.78a1,1,0,0,0-.46,1.17c.13.52,0,.87-.32,1a6.36,6.36,0,0,1-.26,5.06c.17.44.32.87.45,1.3a.91.91,0,0,0,1,.65,8.17,8.17,0,0,1-.78.91,8.17,8.17,0,0,0-.78.91c-.17.43-.09.67.26.71a.53.53,0,0,1,.52.58,3.43,3.43,0,0,1-.2,1.63.61.61,0,0,0-.19.45,2.94,2.94,0,0,0,.19,1c.13.35.24.67.33,1a2,2,0,0,1,0,1,1.57,1.57,0,0,1-.78.9,2.26,2.26,0,0,0,.26,1.5,2.57,2.57,0,0,1,.26,1.62,5.09,5.09,0,0,1-.07.84,6.65,6.65,0,0,0-.06.85c0,.17,0,.52-.07,1s-.06,1.07-.06,1.63,0,1.08.06,1.55a1.81,1.81,0,0,0,.2.85,4.28,4.28,0,0,0,1.23,1.49C155.82,127.56,156.06,128.06,155.89,128.49Z"/><path class="cls-2" d="M244.53,42.83a1,1,0,0,0-.71.58.81.81,0,0,1-.84.46.64.64,0,0,0,.45.84.74.74,0,0,1,.59.72,1.13,1.13,0,0,1-.72,1.1,1.37,1.37,0,0,0-.84,1.1c-.87-.17-1.45-.13-1.75.13a8.93,8.93,0,0,1-1.37.91,3.18,3.18,0,0,0-1.42.07,5,5,0,0,1-1.43.19,1.24,1.24,0,0,0-.91.39,2,2,0,0,1-.91.52,5.9,5.9,0,0,1-2.14.13,3.65,3.65,0,0,0-2.14.39.68.68,0,0,0-.91-.46,4.22,4.22,0,0,1-1.17.2,2.15,2.15,0,0,1-1.17-.33,2.45,2.45,0,0,0-1.3-.32,6.43,6.43,0,0,0-2.14.39,6.39,6.39,0,0,1-2.14.39,8.34,8.34,0,0,1-1.88-.2,8.37,8.37,0,0,0-1.88-.19,1.09,1.09,0,0,0-1,.45,1.78,1.78,0,0,1-.91.72,13.74,13.74,0,0,0-5.32-.85,12.88,12.88,0,0,0-5.19,1.11,8.43,8.43,0,0,0-4.16-.52,10.28,10.28,0,0,1-4.28-.39,4.92,4.92,0,0,1-2.79.52,5.92,5.92,0,0,1-2.66-.78,5.26,5.26,0,0,1-2.21.32c-.78,0-1.51-.06-2.2-.06a1,1,0,0,0-.59,1.36,4.16,4.16,0,0,1,.33,1.49,1.74,1.74,0,0,1-.2.78,1.72,1.72,0,0,0-.19.78,2.49,2.49,0,0,0,.26,1.17,5,5,0,0,1,.39,1.17,37.46,37.46,0,0,1,.39,5.32c-.26,1-.29,1.67-.07,1.88a1,1,0,0,1,.33.71,2.66,2.66,0,0,1-.13.78,2.82,2.82,0,0,0-.13.91,1.88,1.88,0,0,0,.13.72,2,2,0,0,1,.13.71.79.79,0,0,1-.33.65.92.92,0,0,0-.32.78,3,3,0,0,0,.19,1,3.24,3.24,0,0,1,.2,1.16,2,2,0,0,1-.2.91,2,2,0,0,0-.19.91,8,8,0,0,0,.45,1.56,11.31,11.31,0,0,1,.45,1.43,7.44,7.44,0,0,1,4-.2,18.31,18.31,0,0,0,4,.46,4.28,4.28,0,0,0,1.69-.33,3.57,3.57,0,0,1,1.82-.19c1.12,0,1.86,0,2.2.06a7.27,7.27,0,0,0,1,.07,2,2,0,0,0,1.43-.39,1.4,1.4,0,0,1,1-.39,1.72,1.72,0,0,1,.78.19,2,2,0,0,0,.9.2,2.79,2.79,0,0,0,1.69-.72A8.61,8.61,0,0,0,210,74a1,1,0,0,0,.91.32l1-.13a3.93,3.93,0,0,1,1,0,3.18,3.18,0,0,1,1.17.46,2.75,2.75,0,0,1,.65-.39,6.23,6.23,0,0,1,1-.39,3.5,3.5,0,0,1,.9-.13c.31,0,.46.18.46.52a7.39,7.39,0,0,1,3.63-.71,26.62,26.62,0,0,0,3.51.19,10.74,10.74,0,0,0,3.31-.52,11,11,0,0,1,3.31-.52,3.9,3.9,0,0,0,1.1-.13,3.79,3.79,0,0,1,1-.13c1,.44,1.63.57,1.75.39a.86.86,0,0,1,.72-.26,3.79,3.79,0,0,1,2,.72,5.67,5.67,0,0,0,3.57.45,2.55,2.55,0,0,0,1.17,1.17,3.1,3.1,0,0,0,.26,1.82,7.79,7.79,0,0,0,1,1.55c-.09.44-.18.83-.26,1.17s.08.7.52,1a3.91,3.91,0,0,1-1,1.3,3.7,3.7,0,0,0-1,1.3,2.15,2.15,0,0,0-1.69.13,6.9,6.9,0,0,1-1.43.64,3.59,3.59,0,0,1-1.81.07,1.6,1.6,0,0,0-1.56.45.94.94,0,0,0-1.23-.32,3.25,3.25,0,0,1-1.37.32c-1.12-.17-1.77-.15-1.94.07a.94.94,0,0,1-.78.32c-.09-.43-.37-.6-.85-.52a.79.79,0,0,1-1-.39,1.31,1.31,0,0,1-1.56.52,7.42,7.42,0,0,0-1.68-.26,7.19,7.19,0,0,0-3.18.72,3,3,0,0,1-3.18-.46,1.76,1.76,0,0,1-1.3.52,4.6,4.6,0,0,1-1.17-.13,5.23,5.23,0,0,0-1.17-.13,4.65,4.65,0,0,0-1.82.33,4.23,4.23,0,0,1-1.68.32,2.82,2.82,0,0,1-1.82-.52,7.26,7.26,0,0,1-3.31.59,5.62,5.62,0,0,0-3.18.71,2.29,2.29,0,0,1-2-.26,10.65,10.65,0,0,1-5,.91,12.72,12.72,0,0,0-5.13.78,1.87,1.87,0,0,1-1.17-.59c-.26-.3-.69-.28-1.3.07A14.72,14.72,0,0,0,187,91.83a8.94,8.94,0,0,0,.72,5,4.91,4.91,0,0,1-.65,1,4.7,4.7,0,0,0-.65,1,2.61,2.61,0,0,0,.65,2,1.11,1.11,0,0,1-.26.71,2.11,2.11,0,0,0-.39.72,2,2,0,0,0,0,1,4.7,4.7,0,0,1,.13,1,6,6,0,0,1-.26,1.75,6.26,6.26,0,0,0-.26,1.89,2.11,2.11,0,0,0,.26,1.1,2.21,2.21,0,0,1,.26,1.1c0,.44-.16.7-.46.78a.79.79,0,0,0-.58.52,1.31,1.31,0,0,0,.13,1c.17.26,0,.56-.39.91a6.46,6.46,0,0,1,1,3.31,4.85,4.85,0,0,0,1.24,3.18,3.4,3.4,0,0,0-.2,2.4,23,23,0,0,1,.46,2.4,2,2,0,0,0,1.23-.13,2,2,0,0,1,1.23-.13,3.71,3.71,0,0,0,1.88.52,9,9,0,0,0,1.89-.2,14.09,14.09,0,0,1,1.81-.26,3.17,3.17,0,0,1,1.82.46,3.55,3.55,0,0,1,1.69-.26c.86,0,1.88,0,3-.13s2.35-.24,3.57-.45a9.21,9.21,0,0,0,3.11-1.11,2.19,2.19,0,0,1,.84.39,8.34,8.34,0,0,0,.72.52,5.57,5.57,0,0,1,3-.71,13.31,13.31,0,0,0,3-.2.8.8,0,0,0,.58.65l.85.26a7.94,7.94,0,0,1,3.57-.45,11.11,11.11,0,0,0,3.57-.2,5.7,5.7,0,0,0,1.88-.84,5.84,5.84,0,0,1,1.88-.85,3.25,3.25,0,0,0,2.14.59,16.26,16.26,0,0,0,2.53-.33,18.06,18.06,0,0,1,2.73-.32,5.39,5.39,0,0,1,2.85.71v1.3c.44.35.87.67,1.3,1a6.13,6.13,0,0,1,1.17,1.11,2.69,2.69,0,0,1-.65,1.95c0,.17.06.28.19.32l.52.19a1.65,1.65,0,0,1,.46.26c.08.09.08.31,0,.65.08.35-.13.72-.65,1.11a7.31,7.31,0,0,1-1.82,1,16.11,16.11,0,0,1-2.2.65,3.25,3.25,0,0,1-1.82,0,17.69,17.69,0,0,1-3.83,1.62,15,15,0,0,1-4.22.58,8.17,8.17,0,0,1-1.36-.12,8,8,0,0,0-1.49-.13,7.26,7.26,0,0,1-2.73.19,2.25,2.25,0,0,0-1.82.45c-.43-.17-.91-.34-1.42-.51a4.73,4.73,0,0,0-1.56-.26c-1.13.17-1.75.13-1.88-.13a1,1,0,0,0-.72-.52,6.34,6.34,0,0,1-3.05.32,4.24,4.24,0,0,0-2.79.46,1.83,1.83,0,0,1-.84-.13,3.47,3.47,0,0,1-.33-.26q-.12-.13-.39,0a11,11,0,0,0-1.16.77,7.87,7.87,0,0,0-2,0,2.41,2.41,0,0,1-1.82-.38,8.44,8.44,0,0,1-1.36.64,5,5,0,0,0-1.36.78c-.44.18-.72.18-.85,0a.85.85,0,0,0-.71-.26,1.35,1.35,0,0,0-.85.26,1.06,1.06,0,0,1-.71.26,2.36,2.36,0,0,1-.78-.13,2.66,2.66,0,0,0-.78-.13,3.06,3.06,0,0,0-1.42.33,3.26,3.26,0,0,1-1.43.32,7.74,7.74,0,0,0-4.54.46,8.08,8.08,0,0,1-3.64.84,2.78,2.78,0,0,1-1.82-.65,2.38,2.38,0,0,0-2.07-.39c.08-.52,0-.84-.26-1a2.29,2.29,0,0,1-.65-.46,2.32,2.32,0,0,1-.26-1.1,2.44,2.44,0,0,0-.26-1.1,3.91,3.91,0,0,0-1.1-1.5,4,4,0,0,1-1.11-1.36,1.82,1.82,0,0,1-.19-1c0-.22-.11-.54-.46-1a1.18,1.18,0,0,1-.13-1.17c.18-.35-.08-.61-.77-.78a2.74,2.74,0,0,0,.64-2.73,13.34,13.34,0,0,1-.38-3,3.55,3.55,0,0,1,.32-1.5,3.93,3.93,0,0,0,.32-1.62,1,1,0,0,0-.32-.71,1.14,1.14,0,0,1-.32-.85c.08-1,0-1.42-.26-1.42a4.79,4.79,0,0,0,.64-2.21c.09-.95.13-1.77.13-2.47a5.83,5.83,0,0,0-.39-2.07,6.1,6.1,0,0,1-.38-2.08,9,9,0,0,1,.32-2.46,9,9,0,0,0,.32-2.47,1,1,0,0,1-.13-1,1.55,1.55,0,0,0,.26-.91,10.6,10.6,0,0,0-.19-1.75,5.19,5.19,0,0,0-.58-1.75,4.15,4.15,0,0,0,.77-2.53,3.44,3.44,0,0,1,1-2.53,11.78,11.78,0,0,0-.13-3.05,4.67,4.67,0,0,1,.52-3,3.16,3.16,0,0,1-.52-1.76c0-.65,0-1.29.07-1.94a15.86,15.86,0,0,0,0-1.95,3.55,3.55,0,0,0-.59-1.75,2,2,0,0,0,.72-1.5,7.49,7.49,0,0,0-.2-2.14c-.17-.78-.34-1.53-.52-2.27a8.55,8.55,0,0,1-.26-1.88,1,1,0,0,0,.13-.84,1.75,1.75,0,0,1-.13-.59,8.34,8.34,0,0,1,.2-1.88,7.76,7.76,0,0,0,.19-1.75,4.73,4.73,0,0,0-.26-1.56,5,5,0,0,1-.26-1.56,12.84,12.84,0,0,1,.72-4.09,5,5,0,0,0-.33-4.08,3.39,3.39,0,0,1,1-1.95,14.09,14.09,0,0,1-.52-4.67,39.38,39.38,0,0,1,.52-4.68,2.17,2.17,0,0,1,.78-.45,1.63,1.63,0,0,0,.78-.58,3.5,3.5,0,0,1,1.36-.91,4.53,4.53,0,0,1,1.5-.52,5.13,5.13,0,0,1,1.88.06,10.23,10.23,0,0,1,1.55.59,9.08,9.08,0,0,1,1.56.9,4.39,4.39,0,0,0,1.11.65,4.64,4.64,0,0,1,2.79.33,6.09,6.09,0,0,0,2.66.58A11.15,11.15,0,0,0,195,41a2.46,2.46,0,0,1,2,.45,9.82,9.82,0,0,1,4.93-1c1.73.09,3.42.13,5.06.13a2.15,2.15,0,0,0,1.11-.26l1-.52a10.36,10.36,0,0,0,2.34.26h2.33a7,7,0,0,0,2.79,0,6.54,6.54,0,0,1,1.89-.26,2.21,2.21,0,0,1,1.1.26,2.11,2.11,0,0,0,1.1.26,16.33,16.33,0,0,0,2.92-.26,17.4,17.4,0,0,1,2.92-.26,3,3,0,0,1,2.21-1A5,5,0,0,0,231,38a12.43,12.43,0,0,0,3.82.71,7.06,7.06,0,0,0,3.83-1,5.22,5.22,0,0,0,1.11.39.88.88,0,0,1,.71.78,2.31,2.31,0,0,1,1.88.19,3.15,3.15,0,0,0,1.63.58c.08.52.15,1,.19,1.56A6.66,6.66,0,0,0,244.53,42.83Z"/><path class="cls-2" d="M369.14,128.49c.17.44.06.65-.33.65h-1a1.1,1.1,0,0,1,.19,1,2.55,2.55,0,0,1-.52.71c-.21.22-.43.46-.65.72a1.4,1.4,0,0,0-.32.91,4.41,4.41,0,0,0-2.47.06,11.73,11.73,0,0,0-1.42,1.88,7.62,7.62,0,0,0-2.21.78,2.48,2.48,0,0,1-1.49-.58c-.31-.3-.93-.37-1.89-.2.18-1-.21-1.42-1.16-1.42a8.17,8.17,0,0,0,.06-1.69c0-.52-.41-.91-1.1-1.17a1.36,1.36,0,0,0,.26-1.75,3.26,3.26,0,0,1-.39-2,1.54,1.54,0,0,1,.13-.59,2,2,0,0,0,.13-.71c-.35-.69-.41-1.12-.2-1.3a.79.79,0,0,0,.33-.65,24.24,24.24,0,0,0,.52-4.61v-3.82c0-.35-.09-.57-.26-.65a6.9,6.9,0,0,1-.65-.39q0-.65.45-.78a.84.84,0,0,0,.59-.65,3.2,3.2,0,0,0-.2-1.69,3.09,3.09,0,0,1-.19-1.69,4.49,4.49,0,0,0,.06-2.53,2.2,2.2,0,0,1-.19-1.36,2,2,0,0,1,.19-.91,1.74,1.74,0,0,0,.2-.78,3,3,0,0,0-.13-.9,2.36,2.36,0,0,1-.13-.78,6.3,6.3,0,0,1,.13-1.3,7.16,7.16,0,0,0,.13-1.3,6.1,6.1,0,0,0-.13-1.23,2,2,0,0,0-.52-1,5.69,5.69,0,0,0,.39-3.37,12.2,12.2,0,0,1,0-3.64c.26-1,.28-1.68.06-1.94a1,1,0,0,1-.19-.91,2,2,0,0,1,.19-.91,2,2,0,0,0,.2-.91,2.15,2.15,0,0,0-.33-1.17,1.54,1.54,0,0,1-.19-1.16,7.72,7.72,0,0,0-.07-4.16,3.73,3.73,0,0,1,.07-3,1.06,1.06,0,0,0-.26-.78,3.61,3.61,0,0,1-.52-.65c.08-.86,0-1.41-.2-1.62a3.19,3.19,0,0,1-.58-1.37,10.6,10.6,0,0,1-.06-3.89,8.48,8.48,0,0,0-.2-3.76,3,3,0,0,0-.65-1,1.08,1.08,0,0,1-.13-1.17,4.12,4.12,0,0,0-1.17.71,3.76,3.76,0,0,1-1.16.72,3.32,3.32,0,0,1-.33,1.62,2.49,2.49,0,0,0-.06,1.75,3.13,3.13,0,0,1-1.3,1.3l-.78,2.6a.87.87,0,0,1-.45.39,1.52,1.52,0,0,0-.59.39L346,72.55a1.3,1.3,0,0,0-.06.72,3.17,3.17,0,0,1,.06.58,2.59,2.59,0,0,1-.32,1,9.62,9.62,0,0,1-.85,1.36l-1,1.36a9.06,9.06,0,0,0-.58.91,4.46,4.46,0,0,1-1.17,1.5,1.08,1.08,0,0,0-.52.45.93.93,0,0,0-.26.71,1.71,1.71,0,0,1-.13.72,11.17,11.17,0,0,1-1,1.75A3.28,3.28,0,0,1,338.89,85a4.92,4.92,0,0,1-.13,1.11c-.08.39-.39.58-.91.58a2.69,2.69,0,0,1-.51,2.34,1.45,1.45,0,0,0-.26,1.81,1.32,1.32,0,0,0-1,.33,5,5,0,0,0-.58.71c-.18.26-.35.52-.52.78a1.26,1.26,0,0,1-.78.52,3.4,3.4,0,0,1,.07,1.75,1.52,1.52,0,0,1-1.24,1.23,7.09,7.09,0,0,1-.26,1,1.62,1.62,0,0,0,.13,1,1.17,1.17,0,0,0-.91,1.23,2.21,2.21,0,0,1-1,1.76,2.64,2.64,0,0,1-.07,1.81,3.82,3.82,0,0,0-.45,1.56,4.69,4.69,0,0,0-1.88,1.88,11.75,11.75,0,0,0-1.37,2.4c-.78.35-1.17.65-1.17.91a2.36,2.36,0,0,1-.13.78l-.51.52-.52.52a5.92,5.92,0,0,0-.46,2q-.06,1.11-.06,2a.73.73,0,0,0-.72.39,1.64,1.64,0,0,1-.58.65c0,.44,0,1-.07,1.69a1.66,1.66,0,0,1-.71,1.43,2.67,2.67,0,0,1-.13,2.4,3.61,3.61,0,0,0-.39,2.4,11.34,11.34,0,0,0-2,1.62,10.16,10.16,0,0,1-2.08,1.62,5.45,5.45,0,0,1-2.27.78,3.32,3.32,0,0,1-2.46-.91.69.69,0,0,0-.65.07,1.06,1.06,0,0,1-.65.19,3.85,3.85,0,0,1-1.37-.26,1.88,1.88,0,0,0-1.36,0,6,6,0,0,0-.78-2.4,4.17,4.17,0,0,1-.52-2.53,1.38,1.38,0,0,1,.33-.91,1.4,1.4,0,0,0,.32-.9,4.58,4.58,0,0,0-.19-2,3.58,3.58,0,0,0-1.11-1.62c-.08-.69-.17-1.43-.26-2.21a2.45,2.45,0,0,0-1-1.81,4.78,4.78,0,0,0-.52-2.73,10.18,10.18,0,0,0-1.69-2.2,4.93,4.93,0,0,0-.32-1.17c-.22-.61-.48-1.24-.78-1.88s-.61-1.26-.91-1.82-.5-.93-.59-1.1a7.93,7.93,0,0,1-.45-1.17.75.75,0,0,0-1-.52c.08-1.21-.22-1.93-.91-2.14a3.18,3.18,0,0,1-1.69-1.24,10.55,10.55,0,0,1-1.3-2.27A6.89,6.89,0,0,0,294,92.8a2.74,2.74,0,0,0-.84-1.82,7.84,7.84,0,0,0-1.75-1.17c.17-.69.13-1.14-.13-1.36a1.18,1.18,0,0,1-.39-1,3.4,3.4,0,0,0-1.1-1.1c-.48-.31-.93-.59-1.37-.85A4.65,4.65,0,0,0,287,82.87a6.26,6.26,0,0,1-1.69-2.66,6.42,6.42,0,0,0-1.1-1.1,3.5,3.5,0,0,0-1.24-.85,2,2,0,0,0-.26-1.81,2.16,2.16,0,0,1-.52-1.56,2.19,2.19,0,0,1-.71-.84,7.08,7.08,0,0,1-.32-.91,2.28,2.28,0,0,0-.46-.85,1.78,1.78,0,0,0-1.1-.52c-.18-.69-.33-1.29-.46-1.81s-.67-.87-1.62-1a2.11,2.11,0,0,0-.32-1.23,4.8,4.8,0,0,0-.78-.85,7.5,7.5,0,0,1-.85-.84,1.62,1.62,0,0,1-.38-1.1,4.25,4.25,0,0,1,0,2.53,3.84,3.84,0,0,0-.39,1.62c0,.43.15.67.45.71s.45.28.45.72a2.48,2.48,0,0,1-.39,1.29,2.62,2.62,0,0,0-.38,1.3,11.4,11.4,0,0,1-.07,3.64c-.22,1.21-.11,2,.33,2.33a1,1,0,0,1-.39.91,2,2,0,0,0-.65.78,1.69,1.69,0,0,1,.19,1,2.56,2.56,0,0,0,.07,1,3.94,3.94,0,0,0,.32.9,1.74,1.74,0,0,1,.2.78,15.62,15.62,0,0,1-.39,3.25,3.2,3.2,0,0,0,.65,3,1.46,1.46,0,0,0-.13,1.56,3.58,3.58,0,0,1,.38,1.56c-.08.26-.17.52-.25.78a2.77,2.77,0,0,0-.13.91,12.18,12.18,0,0,0-.07,2.2,13.32,13.32,0,0,1-.06,2.21,6.1,6.1,0,0,1-.13,1.23,5.48,5.48,0,0,0-.13,1.24c0,.43.17.69.52.77s.43.35.25.78c-1.12,1.13-1.49,2.1-1.1,2.92a2.49,2.49,0,0,1-.06,2.4l-.65,1.43a4.61,4.61,0,0,1,.39,2.79,25.32,25.32,0,0,0-.39,2.79,6.4,6.4,0,0,0,.19,1.56,3.91,3.91,0,0,1,.07,1.56,4,4,0,0,0,.06,2.27,2.47,2.47,0,0,1,.33,1.23,10.18,10.18,0,0,1-.52,1.82,1.47,1.47,0,0,0,.26,1.69,4.39,4.39,0,0,0-.91,1.75,8.3,8.3,0,0,1-.78,1.88,1.82,1.82,0,0,1,.06,2.21,12,12,0,0,1-1.49,1.81c-.95,0-1.6,0-1.94-.06s-.57.54-.65,1.75a4,4,0,0,0-1.37.59,2.73,2.73,0,0,1-1.49.45,1.82,1.82,0,0,1-1.62-.91,2,2,0,0,0-2-.78.87.87,0,0,0,.06-.52.46.46,0,0,0-.32-.19,1,1,0,0,1-.52-.33,1.44,1.44,0,0,1-.26-1c-.87-1.47-1.11-2.49-.72-3a3.07,3.07,0,0,0,.59-1.76,3.85,3.85,0,0,0-.13-1c-.09-.3.08-.58.52-.84a1.14,1.14,0,0,0,.06-1,1.91,1.91,0,0,1-.19-1c.6-.86.86-1.49.78-1.88a4.48,4.48,0,0,1-.13-1c.26-.69.3-1.12.13-1.29a.87.87,0,0,1-.26-.65,9.21,9.21,0,0,1,.78-3.64,9.11,9.11,0,0,0,.77-3.63,2.36,2.36,0,0,0-.19-1,4,4,0,0,1-.32-.91,5,5,0,0,1-.07-2.14,2.44,2.44,0,0,0,.2-1,17.66,17.66,0,0,0,.13-2v-2q.26-3.37.45-6.42a16.61,16.61,0,0,0-1-6.43,7.13,7.13,0,0,1,.84-.77c.13-.09.24-.44.32-1a9.83,9.83,0,0,0-.26-2.21,2.89,2.89,0,0,1,.39-2.21,1.59,1.59,0,0,0-.32-1,2.16,2.16,0,0,1-.45-.91,13.31,13.31,0,0,1,.77-3.38,4.67,4.67,0,0,1-.32-1.23,1.41,1.41,0,0,0-.58-1,62.37,62.37,0,0,0,1.16-9.09,37.2,37.2,0,0,0,0-4.48,26.6,26.6,0,0,1,.13-4.47,2.48,2.48,0,0,1,.33-1,2.17,2.17,0,0,1,.71-.91c-.52-.61-.71-1.06-.58-1.36a3.12,3.12,0,0,0,.06-1.5,3.67,3.67,0,0,0-.06-1.68,4.82,4.82,0,0,1-.33-.91,3.14,3.14,0,0,1-.06-1.11,4.06,4.06,0,0,1,.45-1.36,12.25,12.25,0,0,1-.45-1.82.82.82,0,0,1,.13-.71,4.51,4.51,0,0,1,.45-.39,1.61,1.61,0,0,0,.39-1,2.25,2.25,0,0,0,2.27.06,5.07,5.07,0,0,1,2.4-.58,6.23,6.23,0,0,1,2.21.39,4.24,4.24,0,0,0,2.34.13c.08.26.54.69,1.36,1.29s1.36,1,1.62,1.17A5.82,5.82,0,0,0,278.47,50a20.65,20.65,0,0,1,1.76,2.33,1.23,1.23,0,0,0,.58.52,1.89,1.89,0,0,1,.59.39,11.58,11.58,0,0,0,.06,1.3,3,3,0,0,0,.45,1.17c.52.78.87,1.17,1,1.17a.76.76,0,0,1,.52.26.88.88,0,0,1,.2.65c-.05.17.15.43.58.78a6.54,6.54,0,0,1,1.36,1.62c.48.73.89,1.32,1.24,1.75a2.4,2.4,0,0,0,.71.71c.13.05.19.37.19,1a.62.62,0,0,0,.46.65,1.2,1.2,0,0,1,.71.52,1.86,1.86,0,0,0,.72,1.16,1.86,1.86,0,0,1,.71.78.69.69,0,0,1,.13.72.67.67,0,0,0,.13.71c.6.52.86.82.78.91a.53.53,0,0,0-.13.39c-.09.26.11.6.58,1a3.62,3.62,0,0,0,1.11.77,5.3,5.3,0,0,1,.19.85,1.9,1.9,0,0,0,.33.84c.34.44.58.54.71.33s.19.15.19,1.1c0,.09.15.3.46.65s.63.73,1,1.17a13.46,13.46,0,0,0,1,1.16c.35.35.56.57.65.65a2,2,0,0,0,1,2.08,9.51,9.51,0,0,1,2,1.56,2.76,2.76,0,0,1,.72,1.1,1.37,1.37,0,0,0,1,.84,28.12,28.12,0,0,1,1.3,4.55,5.49,5.49,0,0,1,1.82,2A4.2,4.2,0,0,0,307.35,92a2.42,2.42,0,0,0,.46,1.75,1.22,1.22,0,0,1-.07,1.63,1,1,0,0,0,.85.71,1.55,1.55,0,0,1,1,.45,3,3,0,0,1,.52.85,5.31,5.31,0,0,0,.65,1.1,15.37,15.37,0,0,1,1.17,1.43,3.74,3.74,0,0,1,.71,1.49,2.68,2.68,0,0,0,1,1.49,1.66,1.66,0,0,0-.06,1.5,6.49,6.49,0,0,0,.84,1.36c.61.17,1.26-.15,1.95-1a3.63,3.63,0,0,0,1-2.15,2.44,2.44,0,0,0,1.94-1.36,7.24,7.24,0,0,0,.65-2.53,6,6,0,0,0,2.73-4.54,53.34,53.34,0,0,0,2.47-4.8,17.59,17.59,0,0,1,2.33-3.9c-.17-.69-.06-1.17.33-1.43a1.35,1.35,0,0,0,.45-1.42,2.11,2.11,0,0,0,1.69-1.3A2.33,2.33,0,0,1,331.37,80a1.33,1.33,0,0,1,.06-1.23,10.48,10.48,0,0,1,.71-1.11l.13-1.29c-.17-.52,0-.74.39-.65s.74,0,.91-.26a6.52,6.52,0,0,0,1.24-2.6,23.43,23.43,0,0,0,.45-2.85c.08-.44.24-.67.45-.72s.41-.23.59-.58a23.65,23.65,0,0,1,1.1-2.6,8.48,8.48,0,0,1,1.62-2.2c.18-.44.18-.74,0-.91a1.06,1.06,0,0,1-.26-.78,1.26,1.26,0,0,1,.52-.78q.39-.26,0-1.17a10.05,10.05,0,0,1,1.37-1.56,3.41,3.41,0,0,0,1-1.81,1.49,1.49,0,0,0,1.23-1.17,1.81,1.81,0,0,1,1-1.3,4.25,4.25,0,0,1-.07-1.23c0-.3.11-.67.2-1.1.69-.7,1-1.19.9-1.5a1.36,1.36,0,0,1,.13-1,4.14,4.14,0,0,0,1-.84,1.87,1.87,0,0,1,1.17-.59,1.25,1.25,0,0,0,0-.84c-.09-.13,0-.41.13-.85a2.31,2.31,0,0,0,1.49-1,1.93,1.93,0,0,1,1.75-.71,1.34,1.34,0,0,0,.33-.78,8.12,8.12,0,0,0,.06-.91,3.45,3.45,0,0,1,1.24-.26h1.23a4.84,4.84,0,0,1,2.92.39,7.37,7.37,0,0,0,3.18.65,7.46,7.46,0,0,0,.45,1.82c.22.51.42,1,.59,1.55a24,24,0,0,1,.65,3.12,5.74,5.74,0,0,0,1.56,2.85l-.13,1.43a1.52,1.52,0,0,1,.45.91,1,1,0,0,0,.71.78,1.89,1.89,0,0,0-.19,2,9.32,9.32,0,0,1,.71,1.94l-.78,1.17a5.16,5.16,0,0,1,.33,1.56,1.21,1.21,0,0,0,.84,1.17c-.6.69-.73,1.32-.39,1.88a3.48,3.48,0,0,1,.52,1.88l-.26.58a2.09,2.09,0,0,0-.13.72,3.17,3.17,0,0,0,.26.91,3.3,3.3,0,0,1,.26,1.29,38.82,38.82,0,0,1,.46,4c0,1,.06,2.07.06,3.11a1,1,0,0,0,.39.91l.78.52a.45.45,0,0,1-.19.58c-.22.13-.29.42-.2.85a1.15,1.15,0,0,1,.32.65c0,.26.24.39.59.39a7.26,7.26,0,0,0-.13,4.09,11.73,11.73,0,0,1,.39,3.82,1.23,1.23,0,0,1-.39.59,1.07,1.07,0,0,0-.39.58,1.88,1.88,0,0,0,.13.72,1.7,1.7,0,0,1,.13.58,1.33,1.33,0,0,1-.2.71,1.19,1.19,0,0,0-.19.59.92.92,0,0,0,.65.91c.43.17.6.39.52.65a2,2,0,0,1-.52.9c-.35.44-.18.7.52.78a1,1,0,0,0-.46,1.17c.13.52,0,.87-.32,1a6.36,6.36,0,0,1-.26,5.06c.17.44.32.87.45,1.3a.91.91,0,0,0,1,.65,8.17,8.17,0,0,1-.78.91,8.17,8.17,0,0,0-.78.91c-.17.43-.09.67.26.71a.53.53,0,0,1,.52.58,3.43,3.43,0,0,1-.2,1.63.61.61,0,0,0-.19.45,2.94,2.94,0,0,0,.19,1c.13.35.24.67.33,1a2,2,0,0,1,0,1,1.57,1.57,0,0,1-.78.9,2.26,2.26,0,0,0,.26,1.5,2.57,2.57,0,0,1,.26,1.62,5.09,5.09,0,0,1-.07.84,6.65,6.65,0,0,0-.06.85c0,.17,0,.52-.07,1s-.06,1.07-.06,1.63,0,1.08.06,1.55a1.81,1.81,0,0,0,.2.85,4.28,4.28,0,0,0,1.23,1.49C369.07,127.56,369.31,128.06,369.14,128.49Z"/><path class="cls-2" d="M436.76,42.83H439a2.56,2.56,0,0,0,1.5,1.1,3.85,3.85,0,0,1,1.62.85,2.13,2.13,0,0,0,.65.32,1.81,1.81,0,0,0,.52.07,1.22,1.22,0,0,1,.65.26,7.79,7.79,0,0,1,1,.9l1,1.17c.44.26.82.48,1.17.65a2.33,2.33,0,0,1,.91.91,1.89,1.89,0,0,1,.91.39,1,1,0,0,0,.91.13,26.54,26.54,0,0,0,2.46,2.85,16,16,0,0,0,3,2.34,2.72,2.72,0,0,0,.45,1.17,15.66,15.66,0,0,0,1,1.56A9.6,9.6,0,0,0,458,58.86a3.32,3.32,0,0,0,1,.71,3.17,3.17,0,0,0-.19,1.11,6.28,6.28,0,0,1,.32,1.1c.26.35.52.67.78,1s.56.63.91,1a3.47,3.47,0,0,1,1,1.68c.05.44.5,1,1.37,1.69a6.14,6.14,0,0,0-.07,1.43,2.22,2.22,0,0,0,.2.52,4.16,4.16,0,0,1,1,1.56,3.25,3.25,0,0,0,1.23,1.55,10.8,10.8,0,0,0,.65,3.64,8.8,8.8,0,0,1,.52,3.63,3.53,3.53,0,0,1,.52.91,4.43,4.43,0,0,1,.19.78,1.5,1.5,0,0,0,.33.71,5.63,5.63,0,0,0,.91.85,5.38,5.38,0,0,0-.59.71,1.44,1.44,0,0,0-.32.71,6,6,0,0,1,.19,1.82,4.21,4.21,0,0,1-.71,1.69,4.15,4.15,0,0,1,.45,2,4.91,4.91,0,0,1-.32,1.42,5.28,5.28,0,0,0-.33,1.37,2.84,2.84,0,0,0,.46,1.62,2.35,2.35,0,0,1-.39,1.17,3.42,3.42,0,0,0-.39.45,1.35,1.35,0,0,0-.13.71,9.07,9.07,0,0,0,.39,2,4.72,4.72,0,0,0-.58,1,5,5,0,0,1-.59,1,15.89,15.89,0,0,1-.45,1.82c-.22.69-.44,1.38-.65,2.07s-.41,1.32-.58,1.88a4.58,4.58,0,0,0-.26,1.24,17.72,17.72,0,0,1-1.69,3.63c-.52.35-1.13.78-1.82,1.3l.58.58.59.59a16,16,0,0,0-1.62,2.53,6.86,6.86,0,0,1-1.89,2.27,2.65,2.65,0,0,0-.13,1.3l-1.42.91a2.9,2.9,0,0,1-.46,1.23,3.13,3.13,0,0,0-.45,1.36,2.39,2.39,0,0,0-1.23,1,6.56,6.56,0,0,0-.59,1.62c-.86-.09-1.3-.09-1.3,0s-.34.3-1,.65L449.61,128a6,6,0,0,1-2.08,1.43,4.66,4.66,0,0,0-1.88,1L444,131.74a5.24,5.24,0,0,0-2.34.45c-.61.31-1.3.67-2.08,1.11a10.07,10.07,0,0,1-2.66.9,10.61,10.61,0,0,0-2.66.91h-.84a1.45,1.45,0,0,1-.85-.26,4.41,4.41,0,0,1-1,.85,5.17,5.17,0,0,1-1.43.32,7.24,7.24,0,0,1-2.08.72,5,5,0,0,1-1-.59,5.34,5.34,0,0,1-2,.72,11.92,11.92,0,0,1-1.69,0,9.43,9.43,0,0,0-1.68,0,4.18,4.18,0,0,0-1.62.45,5.47,5.47,0,0,1-1.43-.32,2.75,2.75,0,0,0-.72-.26,1.55,1.55,0,0,0-.78.06,10.36,10.36,0,0,0-1.62.78,11,11,0,0,1-1.23-.33,3.75,3.75,0,0,1-1.1-.58,12.63,12.63,0,0,1-3.31-.71A7.34,7.34,0,0,1,407,134.2a1.72,1.72,0,0,1-.78-.19,1.74,1.74,0,0,0-.78-.2c-.7.09-1.11,0-1.24-.25a2.27,2.27,0,0,0-.45-.65,6.21,6.21,0,0,1-1.1-.39c-.13-.09-.54-.05-1.24.13-1-.69-1.55-1.13-1.55-1.3s-.48-.17-1.43,0a5.11,5.11,0,0,0-.91-1.62,8.24,8.24,0,0,0-1.1-1l-1.17-.91a3.36,3.36,0,0,1-1-1.36c-.7-.26-1.37-.52-2-.78l-2-.78a3.79,3.79,0,0,1,0-2,5.23,5.23,0,0,1-.71-1.81c-.05-.44-.54-.87-1.49-1.3a3,3,0,0,0,.19-1.24,2.65,2.65,0,0,0-.26-.84,9.19,9.19,0,0,1-.39-.91,3.72,3.72,0,0,1-.19-1.3,7.45,7.45,0,0,1-1-3.18,7.23,7.23,0,0,0-.32-2.14,5.51,5.51,0,0,0-.78-1,1.46,1.46,0,0,1-.26-1.29,8.18,8.18,0,0,0-.52-.91,5,5,0,0,0-.65-.78,5.7,5.7,0,0,0-1.69-3.89,4.12,4.12,0,0,0,.52-1.24c.09-.39-.17-.71-.78-1a10.23,10.23,0,0,1,.07-1.17,1.52,1.52,0,0,1,.45-.91c-.08-.43-.15-.78-.19-1a1.64,1.64,0,0,1,.32-1,4.91,4.91,0,0,0-.65-2,5.16,5.16,0,0,1,.07-1.1,9.43,9.43,0,0,1,.45-1,3.86,3.86,0,0,0-.19-1.23,1.28,1.28,0,0,1,.32-1.23,11.89,11.89,0,0,1-.13-3.9c.18-1.3.35-2.59.52-3.89a3.21,3.21,0,0,1,.65,1.94,5.55,5.55,0,0,1-.26,1.82,1.8,1.8,0,0,1-.65-1.88c.18-.73.39-1.49.65-2.27s.5-1.51.72-2.21a4.43,4.43,0,0,1,.45-1.17,1.57,1.57,0,0,1,.13-1.42,5.1,5.1,0,0,0,.65-1.17,2.1,2.1,0,0,1-.32-1.56,3.54,3.54,0,0,1,.84-1.17,18,18,0,0,1,1-4.28A24,24,0,0,0,388.09,64c.77-.87,1.38-1.54,1.81-2a5.56,5.56,0,0,0,1-2.53A5.49,5.49,0,0,0,392.11,58a1.6,1.6,0,0,1,.78-.78,2.52,2.52,0,0,0,.91-.85,1.58,1.58,0,0,1,1-.71,4.54,4.54,0,0,0,.45-.91c.13-.34.28-.69.45-1a2.31,2.31,0,0,0,1.69-.52,7,7,0,0,1,2.34-2.2c.52-.18,1-.78,1.42-1.82a2.76,2.76,0,0,0,1.63-.84,2.66,2.66,0,0,1,1.49-.85,5.7,5.7,0,0,1,.65-1.17,4.81,4.81,0,0,0,2.79-.77,5.19,5.19,0,0,1,2.66-.91q1-.65,1.95-1.11a4.57,4.57,0,0,1,2.07-.45,7.41,7.41,0,0,1,1.82-.71,19.93,19.93,0,0,1,2.47-.52,16.9,16.9,0,0,1,2.53-.2,5.34,5.34,0,0,1,1.88.26c.43-.34.76-.43,1-.26a1.51,1.51,0,0,0,1,.26,3.31,3.31,0,0,0,1.49-.58,3.86,3.86,0,0,1,2-.59,2.5,2.5,0,0,1,1.23.26,6.19,6.19,0,0,1,.78.52,8.34,8.34,0,0,0,.72.52,2.07,2.07,0,0,0,1.17.26,6.1,6.1,0,0,0,2.27-.39C435.4,41.66,436.06,42,436.76,42.83Zm19.47,38.29a2.65,2.65,0,0,1-.65-.59,6.87,6.87,0,0,1-.52-.71,7.47,7.47,0,0,0-.65-3.11,11.9,11.9,0,0,1-.91-3.12,1.15,1.15,0,0,1-.65-.71c-.08-.31-.17-.63-.26-1-.6-.69-1.12-1.25-1.55-1.68a2.28,2.28,0,0,1-.65-1.69c-.26.17-.59-.17-1-1a15.88,15.88,0,0,0-.84-1.69,4.25,4.25,0,0,0-.59-.9,5.07,5.07,0,0,1-.58-.91c-.43-.18-.86-.37-1.3-.59a1.83,1.83,0,0,1-.91-1,3.71,3.71,0,0,1-1.94-.91A1.9,1.9,0,0,0,442.6,60a2.65,2.65,0,0,1-.91-1.42,3.37,3.37,0,0,1-1.43-.78c-.08-.35-.21-.57-.39-.65a3,3,0,0,1-.65-.52,3,3,0,0,1-1.81-.78,1.52,1.52,0,0,0-1.82-.13,2,2,0,0,1-.91-1,3.32,3.32,0,0,0-1.3-.19,1.46,1.46,0,0,1-.9-.2,5,5,0,0,0-1.89-1.36,5.58,5.58,0,0,0-1.49-.2,2,2,0,0,1-2.08.52,3.78,3.78,0,0,1-1.1.59,1.43,1.43,0,0,1-1.23-.2,2.52,2.52,0,0,1-1.3.52,3.68,3.68,0,0,1-1.43-.26,3.87,3.87,0,0,0-1.43-.26,8.58,8.58,0,0,0-1.81.2,5.74,5.74,0,0,1-2,.06,2.44,2.44,0,0,1-2.34.78,2.44,2.44,0,0,1-1.23.91,6.1,6.1,0,0,0-1,.32,2,2,0,0,0-.84.78,7.44,7.44,0,0,0-.78,2,7.17,7.17,0,0,0-1.3-.45.64.64,0,0,0-.58.13l-.52.52a2.78,2.78,0,0,1-1.1.58l-.52,1.3a5.62,5.62,0,0,0-1.89,1.69,4.29,4.29,0,0,1-2,1.56,4.23,4.23,0,0,1-.91,1.55c-.34.35-.73.78-1.16,1.3a2.88,2.88,0,0,1-.65,1.56,1.26,1.26,0,0,1-.78,1,11.64,11.64,0,0,0-.33,2.14,4.46,4.46,0,0,1-.71,2.14,4.54,4.54,0,0,0-.45.91,2.69,2.69,0,0,0-.2.91,3.27,3.27,0,0,1,.07,1.69c-.13.25-.24.49-.33.71a1.42,1.42,0,0,0-.06.78,5.52,5.52,0,0,0,.58,1.49h-1.43a7.27,7.27,0,0,0,.07,1,1.2,1.2,0,0,1-.59,1,3.79,3.79,0,0,0,.13,1,3.9,3.9,0,0,1,.13,1.1c-.26.26-.39.46-.39.59a1.17,1.17,0,0,1-.26.58,4.25,4.25,0,0,1,.2,1.69c-.05.61-.07,1.21-.07,1.82a4.3,4.3,0,0,0-.77,3.37,3.83,3.83,0,0,1-.52,1.82,3.55,3.55,0,0,0-.07,1.82,4.36,4.36,0,0,1,.46,1.16,2.65,2.65,0,0,1,.19,1.24,4,4,0,0,0,.07,1.23,5.3,5.3,0,0,1,1.23,3.18,4.19,4.19,0,0,0,.71,2.53,7.87,7.87,0,0,0,.85,1,1,1,0,0,1,.19,1.11,2.3,2.3,0,0,1,.65,1.17v.64a.55.55,0,0,0,.26.46,6.41,6.41,0,0,0,1.3.58l-.59.59a1.75,1.75,0,0,0-.45.71,1.18,1.18,0,0,1,.65.71,1.12,1.12,0,0,0,.65.72,10.75,10.75,0,0,1,.39,2.85,2.93,2.93,0,0,1,1.88,1.89,4.32,4.32,0,0,0,1.62,2.27,1.65,1.65,0,0,1,1.43.65c.26.43.56.62.91.58a8,8,0,0,1,.91-.06l-.13,1.29c1.64.61,2.92,1.11,3.82,1.5a6.42,6.42,0,0,0,3.57.19,4,4,0,0,0,1,1,.85.85,0,0,0,.72.07,6.15,6.15,0,0,1,.84-.26,5.26,5.26,0,0,1,1.3-.13c.52.61,1,.84,1.3.71a4.65,4.65,0,0,1,1.55-.19,2.36,2.36,0,0,1,.78.13,2.36,2.36,0,0,0,.78.13,1.25,1.25,0,0,0,1.23-.59c.39-.47,1.06-.41,2,.2a4.82,4.82,0,0,1,2.28-.72,14.68,14.68,0,0,1,2.4.07,6.94,6.94,0,0,1,3.57-1.88l4-.85a4.81,4.81,0,0,1,3.11-1.42,6.62,6.62,0,0,1,1.69-1.24l1.94-1c.18-.43.35-.84.52-1.23s.35-.8.52-1.24a18.25,18.25,0,0,0,3.31-3.63,20.45,20.45,0,0,0,1.89-3.63,1.85,1.85,0,0,0,.77-.46l.39-.58a9.22,9.22,0,0,0,.26-3,8.43,8.43,0,0,1,1.11-2c.3-.34.23-1.08-.2-2.2a2.75,2.75,0,0,0,1.49-2.14c.05-.82.07-1.71.07-2.66a7.31,7.31,0,0,0,.91-2,6.48,6.48,0,0,0-.13-2.08,7.1,7.1,0,0,0,.58-3.83c-.13-1.51-.19-2.87-.19-4.09q0-.64-.33-.84a.77.77,0,0,1-.32-.71Z"/><path class="cls-2" d="M564,70.61a2.52,2.52,0,0,0-.71,2.14,12.27,12.27,0,0,1,.2,2.14c0,.69-.11,1.12-.33,1.3a3.25,3.25,0,0,0-.71.91l-1,1.16a21.06,21.06,0,0,1-2,4.09,6.56,6.56,0,0,0-1,3.18c-.52,0-.75.18-.71.52a1.33,1.33,0,0,1-.19.91,1.82,1.82,0,0,1-.85.39c-.39.09-.45.35-.19.78a7.55,7.55,0,0,0-2.73,1.68c-1.12,1-2,1.69-2.47,2.21a3.67,3.67,0,0,0-3.37,1.43,7.34,7.34,0,0,1-2.46,2.21,1,1,0,0,1-.85.13.93.93,0,0,0-.84.13,12.43,12.43,0,0,1-2.21,1.42,2.18,2.18,0,0,0-1,.91,1.06,1.06,0,0,0,.46.59c.21.13.45.26.71.39a2.42,2.42,0,0,1,.65.45.8.8,0,0,1,.13.78,29.9,29.9,0,0,1,7.79,3.89,2.05,2.05,0,0,0,.65,2.21,13.19,13.19,0,0,0,1.42.91,1.25,1.25,0,0,0,.65,1.42,3.91,3.91,0,0,1,1.3,1c.34.78.65,1.17.91,1.17a.91.91,0,0,1,.65.26,4.26,4.26,0,0,0,.84,1.75c.48.65.76,1,.85,1.11a2.13,2.13,0,0,1,.13,1.23,5.46,5.46,0,0,0-.13,1.23,4.11,4.11,0,0,0,.77,2.4,2.18,2.18,0,0,1,.13,2.4,1.17,1.17,0,0,0,.65.65,1.23,1.23,0,0,1,.65.78,5.13,5.13,0,0,1,.2,1.75,4,4,0,0,0,.19,1.63,3.46,3.46,0,0,0,.59,1.29,2.66,2.66,0,0,1,.32,1.56,5.39,5.39,0,0,1-.84,3c-.57.86-1.15,1.73-1.76,2.59a9.12,9.12,0,0,0-2.4.85,3.06,3.06,0,0,0-1.49,2,14.9,14.9,0,0,1-3.89,0,3.75,3.75,0,0,0-.91-1.36,11.33,11.33,0,0,1-1-1,5.89,5.89,0,0,1-.77-1.1,3.64,3.64,0,0,1-.33-1.75,2.79,2.79,0,0,0-.45-1.5,1.17,1.17,0,0,1,.19-1.49,1.15,1.15,0,0,1-.32-.65c0-.26-.29-.34-.72-.26a2.75,2.75,0,0,0,.33-1.62,1.5,1.5,0,0,0-1-1.36,1.1,1.1,0,0,1,.33-.91.72.72,0,0,0,.32-.52,1.59,1.59,0,0,0-.65-1.3c-.43-.34-.43-.86,0-1.55a3.64,3.64,0,0,1-1.1-1.69,3.52,3.52,0,0,0-1.1-1.69,4.81,4.81,0,0,0,.06-2.6c-.21-.77-.93-1.21-2.14-1.29a5,5,0,0,0-1.56-1.76c-.43-.21-.86-.41-1.29-.58.08-.34.06-.58-.07-.71a2.6,2.6,0,0,0-.52-.39,1.67,1.67,0,0,1-.52-.46,1,1,0,0,1-.19-.65c-1,.09-1.67-.08-1.88-.52a4.66,4.66,0,0,0-1.37-1.42,1.89,1.89,0,0,1-1.1-.07,6.28,6.28,0,0,1-.78-.39,3.83,3.83,0,0,0-.71-.32,3.3,3.3,0,0,0-1-.13,1.06,1.06,0,0,0-.46-.59,3.21,3.21,0,0,1-.58-.45,8.81,8.81,0,0,1-2.14-.32,2.12,2.12,0,0,0-2,.32,1.35,1.35,0,0,1-.65-.45c-.18-.22-.35-.41-.52-.59a2,2,0,0,0-.58-.39c-.22-.08-.5,0-.85.26a4.7,4.7,0,0,0-1.23-1.43c-.39-.26-.89,0-1.49.91a1.49,1.49,0,0,0-1.11-.58,6.3,6.3,0,0,0-1.49.06c-.52.09-1,.16-1.56.2a2.4,2.4,0,0,1-1.3-.2,7.53,7.53,0,0,1-1.16.39,10,10,0,0,0-1.17.39c-.78-.08-1.8-.15-3-.19a37.83,37.83,0,0,0-3.83.06,32,32,0,0,0-3.7.46,6.63,6.63,0,0,0-2.66,1,17.25,17.25,0,0,0,.13,3.83,15.22,15.22,0,0,0,1.17,3.7c-.26,1.73-.31,2.72-.13,3l1,1.56a22.49,22.49,0,0,0-.2,3.7,11,11,0,0,0,.84,3.57q0,.64.39.78a1.69,1.69,0,0,1,.65.39,1.23,1.23,0,0,1,.33.65,2,2,0,0,0,.32.78A4.73,4.73,0,0,0,501,130a9.41,9.41,0,0,1-1.69,3,3.87,3.87,0,0,0-2.66.65,4.15,4.15,0,0,1-2.4.77,1.87,1.87,0,0,1-1.17-.39,2.87,2.87,0,0,0-1.3-.51,15.65,15.65,0,0,0-.84-1.69,2.27,2.27,0,0,0-1.5-1c-.17-1.21-.5-1.92-1-2.14a3.23,3.23,0,0,1-1.23-1,.78.78,0,0,0-.13-.77.87.87,0,0,1-.26-.65,1.27,1.27,0,0,1,.19-.85,1.54,1.54,0,0,1,.52-.32,2.78,2.78,0,0,0,.52-.26c.13-.09.2-.35.2-.78a2,2,0,0,0-.2-.91,1.72,1.72,0,0,1-.19-.78.75.75,0,0,1,.32-.71c.22-.13,0-.37-.71-.71a2,2,0,0,1,.19-.91,2,2,0,0,0,.2-.91,9.34,9.34,0,0,0-.2-2c-.13-.6-.28-1.21-.45-1.82a1.21,1.21,0,0,0-.85-.9,1.17,1.17,0,0,1-.84-.78,6.15,6.15,0,0,0,.71-3.83,15.42,15.42,0,0,0-.71-3.83.54.54,0,0,0-.65-.46c-.35,0-.56-.06-.65-.32.17-.43.35-.93.52-1.49a1.61,1.61,0,0,1,1.17-1.11,2.65,2.65,0,0,1-.2-1.29,2.35,2.35,0,0,1,.46-1.17,9.43,9.43,0,0,1-.46-1,1.05,1.05,0,0,0-.84-.65c.43-.43.52-.82.26-1.17a2.82,2.82,0,0,1-.52-1.17,5,5,0,0,0,.91-3.5,23.33,23.33,0,0,1-.26-3.5,1.4,1.4,0,0,1,.32-.91,1.36,1.36,0,0,0,.33-.91,3.34,3.34,0,0,0-.2-1.17,3.26,3.26,0,0,1-.19-1.17,1.64,1.64,0,0,1,.26-.91,3.72,3.72,0,0,0,.39-.77c-.18-.44-.22-.74-.13-.91a1.29,1.29,0,0,0,.13-.52,6,6,0,0,0-.65-2.21c-.43-1-.43-1.64,0-2.08a6.25,6.25,0,0,1-.78-3.18,23.15,23.15,0,0,0,.13-2.53,8,8,0,0,0-.32-2.33,3.22,3.22,0,0,0-1.24-1.69,23.2,23.2,0,0,0-.32-3.83,22.08,22.08,0,0,1-.33-3.83q-.39-1-.06-1.23a.55.55,0,0,0,.32-.45,2.51,2.51,0,0,0-.52-1.5,2.69,2.69,0,0,1-.51-1.62,1.72,1.72,0,0,1,.19-.78,2,2,0,0,0,.19-.91,1.59,1.59,0,0,0-.38-.91c-.26-.34-.13-.6.38-.77a4.35,4.35,0,0,1-.51-1.24,8.65,8.65,0,0,0-.39-1.23,14,14,0,0,1,2.2-3.57,6,6,0,0,0,1.3-4.09c.61-.08,1.19-.19,1.75-.32a8.43,8.43,0,0,1,1.89-.2,10.14,10.14,0,0,0,3.3.2,2.91,2.91,0,0,1,2.28.58,16.06,16.06,0,0,1,4.21-1c1.43-.13,2.88-.22,4.35-.26l4.35-.13a21.34,21.34,0,0,0,4.35-.59c.43.26.82.48,1.17.65a11,11,0,0,0,1.17.52,1.9,1.9,0,0,0,1.1-.32,5.37,5.37,0,0,1,1.1-.59,9.76,9.76,0,0,0,2.79.13c.91-.08,1.84-.13,2.79-.13a6.84,6.84,0,0,1,2.08.33,6.78,6.78,0,0,0,2.08.32c.86.52,1.34.65,1.42.39s.39-.39.91-.39a9.29,9.29,0,0,1,1.82.26c.78.18,1.25,0,1.43-.52a11.19,11.19,0,0,0,2.59.46,21,21,0,0,1,2.73.32,2,2,0,0,1,1.3.72,1.7,1.7,0,0,0,.9.71,2.46,2.46,0,0,1,2,.45,2.71,2.71,0,0,0,1.62.72c-.09.43,0,.65.39.65s.43.21.26.65a8.79,8.79,0,0,1,3.24,1.68q.91.13,2,.33a6.91,6.91,0,0,1,1.89.58,2.49,2.49,0,0,1,.78.59,7.53,7.53,0,0,0,.51.58,4.41,4.41,0,0,0,.91.19,1.34,1.34,0,0,1,.78.33.69.69,0,0,1,.33.52,1.18,1.18,0,0,0,.32.65,3.07,3.07,0,0,0,1,.71c.34.13.43.54.26,1.23h1.69a1,1,0,0,0,.19,1c.22.21.24.54.07,1a2.39,2.39,0,0,0,.77,1,4.36,4.36,0,0,1,.91.91,3.32,3.32,0,0,1,.26,1.3c0,.43.35.64,1,.64v1.69a4.59,4.59,0,0,0,2,1.69,3.2,3.2,0,0,0,.32,2.08,12.56,12.56,0,0,0,1.37,1.55,24,24,0,0,0-.13,2.47A7.64,7.64,0,0,0,564,70.61Zm-13.23-2.34a7.63,7.63,0,0,1-1.3-3.63,2.42,2.42,0,0,1-1.17-.78c-.26-.35-.56-.74-.91-1.17a4.43,4.43,0,0,0-.45-1.23,4.21,4.21,0,0,1-.46-1.24,6.84,6.84,0,0,1-3.76-2.72,2.09,2.09,0,0,1-1.62-.52,8,8,0,0,0-1.37-1.17,2.57,2.57,0,0,1-1.16-.26,2.64,2.64,0,0,0-1.17-.26A16.67,16.67,0,0,1,534,53.47a6.58,6.58,0,0,0-2.66-1.17,10.47,10.47,0,0,0-2.53-.19,10.51,10.51,0,0,1-2.54-.19,11,11,0,0,1-1.23-.33,3.86,3.86,0,0,0-1.23-.19c-1,.17-1.6.15-1.69-.07s-.22-.32-.39-.32a3.29,3.29,0,0,1-2.14.52,17.66,17.66,0,0,0-2.14-.13,3.8,3.8,0,0,0-1.36.26,4.09,4.09,0,0,1-1.37.26,5.08,5.08,0,0,1-1.16-.13,4.71,4.71,0,0,0-1.17-.13,4,4,0,0,0-1.11.13,3.79,3.79,0,0,1-1,.13,2.66,2.66,0,0,1-.78-.13,2.77,2.77,0,0,0-.91-.13,6.5,6.5,0,0,0-2,.32,6.22,6.22,0,0,1-2,.32c-.61-.25-1-.25-1.3,0a9.64,9.64,0,0,0-1.82-.06,11.59,11.59,0,0,0-1.81.32,14.68,14.68,0,0,0-1.69-.38c-.52-.09-1.08-.18-1.69-.26-.6.34-.95.67-1,1s-.6.37-1.55.19c.17.7.32,1.43.45,2.21A6,6,0,0,0,495,57.5a3.54,3.54,0,0,1-.84,1.42,1.31,1.31,0,0,0-.45,1,2.19,2.19,0,0,0,.58,1,3.21,3.21,0,0,1,.71,1.23,7.43,7.43,0,0,0-.38,3.63,5.61,5.61,0,0,0,1.68,3.25,1.27,1.27,0,0,0-.19.91,3.47,3.47,0,0,0,.26,1,5.32,5.32,0,0,1,.32,1,2.83,2.83,0,0,1,0,1.23,18.86,18.86,0,0,1,1.56,2.21,3.17,3.17,0,0,1-.26,2.72.81.81,0,0,0,.65.65q.51.14.39.78c-.61.18-.91.74-.91,1.69a7.26,7.26,0,0,0,.13,1.36,8.31,8.31,0,0,1,.13,1.36,11.14,11.14,0,0,1-.39,2.8,4.62,4.62,0,0,0,0,2.66,1.93,1.93,0,0,1-.65.77,1,1,0,0,0-.39.91,1.27,1.27,0,0,1,.52.72,1.25,1.25,0,0,0,.52.71,5,5,0,0,1,1.88-.13,11.09,11.09,0,0,0,1.75.13c-.34.18-.41.39-.19.65a8.36,8.36,0,0,0,.58.65,14.2,14.2,0,0,0,4.68-.26,21.16,21.16,0,0,1,4.67-.52,11,11,0,0,1,2.34.26,10.81,10.81,0,0,0,2.33.26,2.64,2.64,0,0,0,1.17-.26,2.58,2.58,0,0,1,1.17-.26,6.78,6.78,0,0,0,2.66,0,1.82,1.82,0,0,1,1.62.26l2.73-1.23a4.58,4.58,0,0,1,3-.2,8.26,8.26,0,0,0,2.34-1.1,2.81,2.81,0,0,1,2.59-.2,3.08,3.08,0,0,0,.59-.78,1.53,1.53,0,0,1,.84-.64c.26.17.46.13.59-.13s.36-.31.71-.13a11.39,11.39,0,0,1,1.36-1.17,5.13,5.13,0,0,0,1.24-1.3,4.45,4.45,0,0,0,1.88-.78c.65-.43,1.25-.86,1.81-1.3a15.26,15.26,0,0,1,1.76-1.16,5,5,0,0,1,1.94-.65,3.79,3.79,0,0,1,1.37-1.89A6,6,0,0,0,549,78.91a1.2,1.2,0,0,1,.19-1,1.18,1.18,0,0,0,.2-1,4.2,4.2,0,0,1,1.3-.65c-.09-.61,0-1,.32-1.17s.41-.52.32-1a2.92,2.92,0,0,0,.91-2.08,10.13,10.13,0,0,1-.13-1.55A1.89,1.89,0,0,0,550.72,68.27Z"/><path class="cls-2" d="M613.41,117.2c.52.7.43,1.21-.26,1.56a30.63,30.63,0,0,0,.32,4.09,5.63,5.63,0,0,1-.58,3.83,6.71,6.71,0,0,1,.26.65,2.26,2.26,0,0,1,.13.64,2.84,2.84,0,0,1-.39,1.69,5.29,5.29,0,0,1-.85.91,11.16,11.16,0,0,1-.9.71,1.12,1.12,0,0,0-.46,1,4.23,4.23,0,0,0-2.2.19,9.11,9.11,0,0,0-1.56,1.49,2.78,2.78,0,0,1-1.95-.51,2.56,2.56,0,0,0-1.56-.65,10.58,10.58,0,0,0-1.62-3.05,4.76,4.76,0,0,1-1-3,4.23,4.23,0,0,1,.26-1.5c.17-.47.34-1,.52-1.49.17-.86.13-1.43-.13-1.69a1.78,1.78,0,0,1-.39-1.29,1.72,1.72,0,0,1,.19-.78,1,1,0,0,0,.07-.78,5.89,5.89,0,0,1,.71-2,3.24,3.24,0,0,0,.45-1.76,2.31,2.31,0,0,0-.13-.77,3.12,3.12,0,0,1-.13-.91,2.27,2.27,0,0,1,.33-1.11,2.56,2.56,0,0,0,.32-1.23,3.26,3.26,0,0,0-.32-1.43,3.09,3.09,0,0,1-.33-1.42,3.87,3.87,0,0,1,.13-1,3.9,3.9,0,0,0,.13-1.1,5.85,5.85,0,0,0-.45-2.34,7.59,7.59,0,0,1-.58-2.33,5.12,5.12,0,0,1,.06-.78,1.09,1.09,0,0,0-.19-.78c-.35-.78-.44-1.34-.26-1.69A2.37,2.37,0,0,0,600.3,97c-.52-.56-.57-1.06-.13-1.49a6.21,6.21,0,0,1-.39-1.63,4.42,4.42,0,0,1,.06-.78,1.6,1.6,0,0,1,.26-.58,1.55,1.55,0,0,0,.2-.91,7.92,7.92,0,0,0-.52-2.79,6.08,6.08,0,0,1-.39-2.79q1.43-2.6.39-4a8.07,8.07,0,0,0-3.51-2.47c.18-.43.2-.67.07-.71s-.24-.24-.33-.59a2.7,2.7,0,0,1-.77-.58c-.09-.13-.39-.2-.91-.2a1.61,1.61,0,0,0-.39-1.42,15.37,15.37,0,0,0-1.17-1c-.43-.35-.87-.67-1.3-1a7.66,7.66,0,0,0-.91-.59,5.07,5.07,0,0,0-.58-.91,3.6,3.6,0,0,1-.58-1,3.93,3.93,0,0,1-2.08-1.42,4.94,4.94,0,0,0-2-1.56,2.09,2.09,0,0,1-.52-.78,5.75,5.75,0,0,0-.39-.91,3,3,0,0,1-1.42-.65,2.26,2.26,0,0,0-1.56-.39,3.1,3.1,0,0,0-.13-1.55,4.47,4.47,0,0,0-2.27-1.89,5.91,5.91,0,0,1-2.53-1.88,11.88,11.88,0,0,1-1-1.3,2.07,2.07,0,0,0-1.23-.77c0-.78-.15-1.19-.45-1.24s-.55-.36-.72-1a9.9,9.9,0,0,1-1.49-.91,2.6,2.6,0,0,1-1-1.3,7.53,7.53,0,0,1-3.3-2.72,6.86,6.86,0,0,0-3.31-2.6,8.71,8.71,0,0,0-1.76-2.53,8.74,8.74,0,0,1-1.75-2.53,5.43,5.43,0,0,0,.52-3.38,1.29,1.29,0,0,0,1-.32l.65-.65a3.1,3.1,0,0,1,.91-.58,4.85,4.85,0,0,1,1.88-.26,2.13,2.13,0,0,0,1.56-.52,4.2,4.2,0,0,0,2.4.84,3.57,3.57,0,0,1,2.4,1.1c.09.44.18.81.26,1.11a10.68,10.68,0,0,1,.26,1.1,4.71,4.71,0,0,1,1.69,1c.43.43.86.89,1.3,1.36s.88.93,1.36,1.37a4,4,0,0,0,1.75.9A7.16,7.16,0,0,0,580.76,49a13.45,13.45,0,0,0,3,1.36,4.28,4.28,0,0,0,1,1.49,3.14,3.14,0,0,1,.91,1.62,10.79,10.79,0,0,0,2,.52,6.23,6.23,0,0,1,.39,1,4.91,4.91,0,0,0,.39,1,1.78,1.78,0,0,1,.78.39l.51.52a1.89,1.89,0,0,0,.59.39,1.94,1.94,0,0,0,1,0,1.45,1.45,0,0,0,.46.78.69.69,0,0,1,.19.77c.43.09.8.18,1.1.26a10.93,10.93,0,0,0,1.11.26,4,4,0,0,0,1.23,2.08,4,4,0,0,1,1.23,2.08,3.63,3.63,0,0,1,1,.52,1.54,1.54,0,0,0,1,.26,1.53,1.53,0,0,0,.45.9,1.45,1.45,0,0,1,.46.78,2.61,2.61,0,0,1,1.88,1.37,2.36,2.36,0,0,0,2,1.23q-.12,1.43.39,1.62a2.36,2.36,0,0,1,1,1.1,3.86,3.86,0,0,1,.71-.38,4.35,4.35,0,0,0,.72-.39,4.11,4.11,0,0,0,1.36-1.11,2.33,2.33,0,0,1,1.49-.84c0-.35.07-.56.2-.65s.15-.34.06-.78q1.43,0,1.56-.39t1.17-.78a7,7,0,0,1,1-1,2.74,2.74,0,0,0,.72-1.3c.52-.18.82-.37.9-.59s.35-.28.78-.19l.78-1.17a.91.91,0,0,1,.65-.26.85.85,0,0,0,.65-.26c.86-.86,1.62-1.6,2.27-2.21a4.75,4.75,0,0,0,1.23-1.55.53.53,0,0,1,.26-.52,6.9,6.9,0,0,0,.65-.39,3.65,3.65,0,0,0,.78-.72,5,5,0,0,0,.78-1.49,13.54,13.54,0,0,1,1.36-.45,3.09,3.09,0,0,0,1.37-.85,14.34,14.34,0,0,0,1.94-2.59,3.39,3.39,0,0,1,1.56-1.56c.6-.26,1-.5,1-.71a6.43,6.43,0,0,1,.65-1.11,3.69,3.69,0,0,1,1.23-1,3.18,3.18,0,0,0,1.23-1.29,2.34,2.34,0,0,1,1-.78.82.82,0,0,0,.2-.72,1.16,1.16,0,0,1,.45-1,3.2,3.2,0,0,0,3-2.47c.69-.08,1.06,0,1.1.2s.28.5.71.84a4.44,4.44,0,0,1,2.73-.78,10.35,10.35,0,0,1,3,.39,1.59,1.59,0,0,0,.39,1.17l.78.78a3.34,3.34,0,0,1,.65.91,2.45,2.45,0,0,1,.13,1.43,8.34,8.34,0,0,0,1,.84,2.16,2.16,0,0,1,.72,1c-.18.61-.31,1-.39,1.24a2.62,2.62,0,0,0,.13,1.36,1.28,1.28,0,0,1-.91.71,5.25,5.25,0,0,0-1.17.33,1.29,1.29,0,0,1-1,1c-.48.08-.8.47-1,1.16a1.2,1.2,0,0,1-.65.07,2.93,2.93,0,0,0-.65-.07,3.07,3.07,0,0,1-1.36.91,6.6,6.6,0,0,0-1.3.46,2.76,2.76,0,0,0-1.17,1,3.19,3.19,0,0,0-.33,2.08,4.53,4.53,0,0,0-.84.52,1.13,1.13,0,0,1-.71.26,2.12,2.12,0,0,0-1,.71,1.72,1.72,0,0,1-1.23.58,7.61,7.61,0,0,1-.78,1.11,4,4,0,0,0-.65,1.1A6.21,6.21,0,0,0,632,62a3.31,3.31,0,0,0-1.17,2.6,2.45,2.45,0,0,0-1.95.9,2.66,2.66,0,0,1-1.81,1,1.87,1.87,0,0,0-.33.78,1.44,1.44,0,0,1-.45.78c-.09.35-.24.5-.46.45a1,1,0,0,0-.71.2,2.73,2.73,0,0,1-2,.91,3.48,3.48,0,0,1-1.23,2.2,6.45,6.45,0,0,0-1.62,1.95,8,8,0,0,0-1.63,1.36,2.85,2.85,0,0,0-.45,1.11,3,3,0,0,0-1.88,1.42,3,3,0,0,1-1.89,1.43,1.77,1.77,0,0,1-1.1,1.24,4.17,4.17,0,0,0-1.49,1,1.71,1.71,0,0,1,0,1.3c-.17.34-.35.73-.52,1.16a2.27,2.27,0,0,1,.26,2.08A5.89,5.89,0,0,0,611.2,88a1,1,0,0,1-.26.84,5.53,5.53,0,0,1-.78.46,5.12,5.12,0,0,1,1,2.4,5.11,5.11,0,0,0,1,2.4,17.57,17.57,0,0,0-.2,2.33,4.44,4.44,0,0,0,.2,2.08l.39,1.3a1.45,1.45,0,0,0,.06,1c.13.31.24.59.33.85a5.52,5.52,0,0,1,.13,2,14.65,14.65,0,0,0-.13,2,.6.6,0,0,0,.39.65,2.36,2.36,0,0,0,.78.13,2.12,2.12,0,0,1-.26.78,5.91,5.91,0,0,0-.52.65,1.67,1.67,0,0,1,.39.71,4.68,4.68,0,0,0,.39,1,13.9,13.9,0,0,0-.13,2,4.18,4.18,0,0,1-.39,1.88,1.59,1.59,0,0,1,.19,1c0,.43.15.64.59.64.08.87,0,1.28-.33,1.24S613.49,116.6,613.41,117.2Z"/><path class="cls-2" d="M93.12,152.19a1.46,1.46,0,0,1-1.34-.3,1.44,1.44,0,0,0-1-.45,2.73,2.73,0,0,1-2.38-.15,1,1,0,0,0-.9-.15,2.82,2.82,0,0,1-.89.15,1.62,1.62,0,0,1-1.2-.45,2.31,2.31,0,0,0-1-.59,7.63,7.63,0,0,1-1.5.15H81.33a5.86,5.86,0,0,0-2.24.37,3.88,3.88,0,0,1-1.34.37A4.34,4.34,0,0,0,76,151a1.74,1.74,0,0,1-.45.3,3.58,3.58,0,0,1-2.39.45,6.83,6.83,0,0,0-2.54.15,4,4,0,0,0-1,.45c-.54.3-1.12.65-1.71,1s-1.2.77-1.79,1.12a9.21,9.21,0,0,0-1,.67,13.46,13.46,0,0,1-.67,1.87,13.78,13.78,0,0,0-.67,1.86,38.85,38.85,0,0,0-3.51,2.92,5.44,5.44,0,0,0-1.27,3.2,13.41,13.41,0,0,0-1.49,3,8.08,8.08,0,0,0-.3,2.24,2.76,2.76,0,0,0,.45,1.57,2.72,2.72,0,0,1,.44,1.56c.7.7,1,1.12.75,1.27s.15.43,1.05.82a1.39,1.39,0,0,1,.89,1.5,6.12,6.12,0,0,1,2,1.71,2.26,2.26,0,0,0,1.56,1l.53,1a8.21,8.21,0,0,0,.52.89,7.59,7.59,0,0,1,1.79.75,10.4,10.4,0,0,0,1.49.75,5.54,5.54,0,0,0,1.57.37,4.85,4.85,0,0,0,2-.37,3.85,3.85,0,0,0,1.94,1.64h3.5c1.45,0,2.94,0,4.48-.15s3-.25,4.33-.45a6.07,6.07,0,0,0,2.91-1,5.2,5.2,0,0,1,1.57.82L92.38,185a3.07,3.07,0,0,1,2,.07c.65.25,1.27.52,1.87.82a8.27,8.27,0,0,0,1.86.67,4.31,4.31,0,0,0,2.32-.22c.3.4.59.8.89,1.19a5.22,5.22,0,0,0,1,1.05c1.09.2,2.19.45,3.28.75a5.36,5.36,0,0,1,2.84,1.94h2.39a1.55,1.55,0,0,0,1.26,1.34,3,3,0,0,1,1.72.9c.4,0,.65.1.75.29a5,5,0,0,0,.3.53,1.3,1.3,0,0,0,.37.37,1.5,1.5,0,0,0,1,0,3.6,3.6,0,0,0,2.39,2.39,5.7,5.7,0,0,0,2.24,3,2.65,2.65,0,0,0,.67,2.39,4.4,4.4,0,0,1,1,2.84,5.23,5.23,0,0,1,.89,1.64,4.18,4.18,0,0,0,1,1.64,7.24,7.24,0,0,0-.22,3.06,15.88,15.88,0,0,0,.67,2.76c.3.9.62,1.79,1,2.69a7.51,7.51,0,0,1,.52,2.69,3.26,3.26,0,0,1-.15,1l-.3.9a1.3,1.3,0,0,0,.38.74,1.46,1.46,0,0,1,.37.9,1.79,1.79,0,0,1-.45,1.42q-.45.38-.15,1.56a4.36,4.36,0,0,0-1.42,1.5,3.37,3.37,0,0,0-.22,1.94c-.5.1-.77.27-.82.52s-.33.42-.82.52a3.35,3.35,0,0,1-.6,2.47,3.64,3.64,0,0,0-.75,2.31c0,.5-.2.77-.59.82a2.4,2.4,0,0,0-1,.37,14.8,14.8,0,0,1-.74,2.24c-.6,0-.93.08-1,.23a1.75,1.75,0,0,1-.38.52,17.48,17.48,0,0,0-4,3.06,8.13,8.13,0,0,1-4.11,2.16,1.46,1.46,0,0,0-1,.67,2.08,2.08,0,0,1-.9.83H106c-.5.49-.92.89-1.27,1.19a3,3,0,0,0-.82,1.34,21.18,21.18,0,0,0-5.07,3,7.24,7.24,0,0,0-3.06.37,3.56,3.56,0,0,1-2.77-.07c-.5.19-1.54.52-3.13,1a15.74,15.74,0,0,1-3.14.67c-.59,0-.92-.18-1-.52s-.47-.53-1.26-.53a4.07,4.07,0,0,0-1.72.38,4.25,4.25,0,0,1-1.72.37A7.5,7.5,0,0,1,77.9,253a3.15,3.15,0,0,0-3.14.37c-.79-.3-1.52-.6-2.16-.89a12.26,12.26,0,0,0-2.17-.75,3,3,0,0,0-1-.15,3,3,0,0,1-1-.15,9,9,0,0,1-2.31-.89,4.76,4.76,0,0,0-2.46-.45A9.69,9.69,0,0,1,59.09,249a12.7,12.7,0,0,0-4.48-1.42,5.32,5.32,0,0,0-2.68-2.39,1.57,1.57,0,0,0-.6-1l-.9-.6a6.43,6.43,0,0,1-1.27-1.34c-.35-.5-.67-1-1-1.5a4.54,4.54,0,0,1-1.64-1c-.5-.44-1-.92-1.49-1.41a4.13,4.13,0,0,0-.08-1.87,10.15,10.15,0,0,0-1.12-1.72V232.2c-.49-.7-1-1.4-1.49-2.09a4,4,0,0,1-.74-2.39,6.29,6.29,0,0,1,1-3.44A25.83,25.83,0,0,0,44.46,221l1.87-.22a4,4,0,0,1,1.34.07,5.84,5.84,0,0,0,1.27.15c.4,0,.69-.3.9-.9.59.7,1.16,1.4,1.71,2.09a5.88,5.88,0,0,0,2,1.65,4.08,4.08,0,0,0,.74,2.68,6.76,6.76,0,0,1,1.2,2.54,1.79,1.79,0,0,0,1.19,1.34c.6.2.85.85.75,1.94a9.6,9.6,0,0,0,1,.6l1.2.6a3.17,3.17,0,0,0,.15,1.12c.09.25.24.62.44,1.12a6,6,0,0,0,2.47,1.49,6.11,6.11,0,0,1,2.46,1.49,5,5,0,0,1,1.57.23,1.66,1.66,0,0,0,1.42-.23,19.54,19.54,0,0,0,2,.67,7.75,7.75,0,0,0,2,.23,1.1,1.1,0,0,1,1,.52c.2.35.4.52.6.52.79,0,1.29-.24,1.49-.74a11.45,11.45,0,0,1,2.61.82,6.51,6.51,0,0,0,2.76.52,22.83,22.83,0,0,0,2.54-.15,23,23,0,0,1,2.54-.15,13.11,13.11,0,0,1,2,.15,12.27,12.27,0,0,0,1.87.15,12.32,12.32,0,0,0,2.61-.6c1.35-.39,2.26-.69,2.76-.89a2.41,2.41,0,0,0,1.79-1.35H98.5a7.26,7.26,0,0,1,3.28-2.31,13.85,13.85,0,0,0,3.58-1.86h.9a1.2,1.2,0,0,0,.89-.3,2,2,0,0,0,1.27-1.27c.25-.65.47-1.22.67-1.72.5.2.8.13.9-.22s.45-.47,1.05-.38a2,2,0,0,0,0-1.49,2.52,2.52,0,0,0,1.86-1.64,10.29,10.29,0,0,1,1.12-2.39,2.37,2.37,0,0,1-.15-1.42A6.44,6.44,0,0,0,114,222a3.13,3.13,0,0,1-.15-1.56,1.82,1.82,0,0,0,.15-.67,12.72,12.72,0,0,0-.3-2.39,29.28,29.28,0,0,0-.82-3.14,26.7,26.7,0,0,0-1.19-3.06,12.07,12.07,0,0,0-1.27-2.16c.1-1.1-.08-1.82-.52-2.17a3.07,3.07,0,0,1-1-1.86c-.2-.1-.53-.27-1-.52s-1-.53-1.5-.82a11.71,11.71,0,0,1-1.42-.9c-.39-.3-.64-.5-.74-.6a5,5,0,0,0-3.14-.89A3,3,0,0,1,98.5,200a2.39,2.39,0,0,0-1,.38,2.9,2.9,0,0,1-1.42.37,2.77,2.77,0,0,0-.37-.9c-.15-.19-.33-.44-.53-.74a12.75,12.75,0,0,1-4.1-1.35,8.92,8.92,0,0,0-4.11-1,3.41,3.41,0,0,0-1.49.37,3.34,3.34,0,0,1-2.54.23,2.77,2.77,0,0,0-.89-.15,5.58,5.58,0,0,0-1.35.15,4.85,4.85,0,0,1-1.19.15,6.07,6.07,0,0,1-1.94-.3,6.11,6.11,0,0,0-1.94-.3,2.83,2.83,0,0,0-.9.15,2.77,2.77,0,0,1-.89.15,4.71,4.71,0,0,1-2.32-.53,5.49,5.49,0,0,0-2.91-.37,1.48,1.48,0,0,1-1.19-.52,2.33,2.33,0,0,0-1.79-.52,8.76,8.76,0,0,1-1.57-.15,2.63,2.63,0,0,1-1.42-.75,3.66,3.66,0,0,1-2.46-.15A12.54,12.54,0,0,1,58.79,193c-.5-.45-1-.89-1.42-1.34a5.17,5.17,0,0,1-.82-1c-.4.1-.65.05-.74-.15s-.4-.25-.9-.15a13.17,13.17,0,0,0-2.24-2.76,9.45,9.45,0,0,1-2.09-2.91,4.67,4.67,0,0,0-1.94-1.2,2.31,2.31,0,0,0-.22-1,1.48,1.48,0,0,1-.08-1.05,6.08,6.08,0,0,1-2.53-4.77,11.15,11.15,0,0,1-.68-1.27,2.24,2.24,0,0,0-1-1c.2-.8.43-1.72.67-2.76A2.2,2.2,0,0,0,44,169.2a5.79,5.79,0,0,0,1.42-3.5,6.28,6.28,0,0,1,1.27-3.51l.3-1.49a3.79,3.79,0,0,0,0-1.5c.5-.09,1-.59,1.64-1.49a6.64,6.64,0,0,0,1-2.09,2.79,2.79,0,0,0,2.09-1.49,4.69,4.69,0,0,1,1.79-1.94,5.45,5.45,0,0,1,1.19-2.54,17.66,17.66,0,0,0,1.64-2.24A23.06,23.06,0,0,1,58,144.5a6.65,6.65,0,0,1,2.46-2.16A5.16,5.16,0,0,0,63,142a3,3,0,0,1,2.09-.22,3.85,3.85,0,0,0,.82-.75,1.77,1.77,0,0,1,1-.59,4.64,4.64,0,0,1,2.09-1,9.06,9.06,0,0,0,1.35.07,6.51,6.51,0,0,0,3.5-.67,3.71,3.71,0,0,1,2.17-.67,3.38,3.38,0,0,1,1.19.22,3.39,3.39,0,0,0,1.2.22,24.53,24.53,0,0,0,3-.22q1.78-.23,3.66-.3t3.51,0a6,6,0,0,1,2.68.67,2.19,2.19,0,0,0,1.57.3,2.79,2.79,0,0,1,1.57.15,1.91,1.91,0,0,1,1,.9,3,3,0,0,0,.9,1,12.66,12.66,0,0,1,2.24.3q1.48.3,3.06.75c1,.3,2,.59,3,.89a7.12,7.12,0,0,1,2,.9,2.57,2.57,0,0,1,1.49.15,2.56,2.56,0,0,0,1.49.15,1.35,1.35,0,0,0,1.2,1.12c.59,0,1,.47,1.19,1.27l.9.44,1.27.67a9.43,9.43,0,0,0,1.26.6,3.34,3.34,0,0,0,.75.23,2,2,0,0,0,.9-.23,1.92,1.92,0,0,1,.89-.22,15.22,15.22,0,0,0,1.2,3.06c.49.94,1,1.86,1.49,2.76a22.19,22.19,0,0,0-.45,2.24c-.1.7-.2,1.44-.3,2.24a20.74,20.74,0,0,0-2,1,4.49,4.49,0,0,1-2.17.52,3.62,3.62,0,0,1-1.64-.37,3.6,3.6,0,0,0-1.64-.38,3.2,3.2,0,0,0-1.27.23,2.13,2.13,0,0,1-1.27.07,8.63,8.63,0,0,1-3.58-3.13,1.67,1.67,0,0,1-1.42-.23,12.6,12.6,0,0,1-1-1.12,3.47,3.47,0,0,0-.75.45c-.1.1-.39.05-.89-.15a2.35,2.35,0,0,0-1.35-1.19,4.64,4.64,0,0,0-1.79-.45,1.58,1.58,0,0,0-.82.22,1.56,1.56,0,0,1-.82.23,2.86,2.86,0,0,1-1.49-.45,2.57,2.57,0,0,0-1.19-.45q-1.5.3-1.5-.15A2.77,2.77,0,0,0,93.12,152.19Z"/><path class="cls-2" d="M226.87,142.78a1.14,1.14,0,0,0-.82.68.94.94,0,0,1-1,.52.74.74,0,0,0,.52,1,.83.83,0,0,1,.67.82,1.29,1.29,0,0,1-.82,1.27,1.6,1.6,0,0,0-1,1.27c-1-.2-1.67-.15-2,.15a11.86,11.86,0,0,1-1.56,1,3.62,3.62,0,0,0-1.65.08,6,6,0,0,1-1.64.22,1.42,1.42,0,0,0-1,.45,2.13,2.13,0,0,1-1,.59,6.75,6.75,0,0,1-2.46.15,4.32,4.32,0,0,0-2.46.45.77.77,0,0,0-1-.52,4.67,4.67,0,0,1-1.34.22,2.43,2.43,0,0,1-1.34-.37,2.78,2.78,0,0,0-1.5-.37,7.57,7.57,0,0,0-2.46.44,7.38,7.38,0,0,1-2.46.45,9.66,9.66,0,0,1-2.17-.22,9.61,9.61,0,0,0-2.16-.23,1.26,1.26,0,0,0-1.2.53,2,2,0,0,1-1,.82,15.75,15.75,0,0,0-6.12-1,14.59,14.59,0,0,0-6,1.27,9.6,9.6,0,0,0-4.78-.6,11.65,11.65,0,0,1-4.92-.45,5.56,5.56,0,0,1-3.21.6,6.66,6.66,0,0,1-3.06-.9,6.18,6.18,0,0,1-2.54.38c-.9-.05-1.74-.08-2.54-.08a1.18,1.18,0,0,0-.67,1.57,4.85,4.85,0,0,1,.37,1.72,2,2,0,0,1-.22.89,2,2,0,0,0-.22.9,2.93,2.93,0,0,0,.29,1.34,5.41,5.41,0,0,1,.45,1.34,43.05,43.05,0,0,1,.45,6.12c-.3,1.2-.32,1.92-.08,2.17a1.14,1.14,0,0,1,.38.82,2.73,2.73,0,0,1-.15.89,3.32,3.32,0,0,0-.15,1.05,2.18,2.18,0,0,0,.15.82,2.18,2.18,0,0,1,.15.82.93.93,0,0,1-.38.75,1.1,1.1,0,0,0-.37.89,3.4,3.4,0,0,0,.23,1.2,4,4,0,0,1,.22,1.34,2.46,2.46,0,0,1-.22,1.05,2.25,2.25,0,0,0-.23,1,8.85,8.85,0,0,0,.52,1.79,15.28,15.28,0,0,1,.53,1.64,8.61,8.61,0,0,1,4.62-.22,21.55,21.55,0,0,0,4.63.52,5,5,0,0,0,1.94-.37,4.15,4.15,0,0,1,2.09-.23c1.29,0,2.14,0,2.54.08a9.5,9.5,0,0,0,1.19.07,2.38,2.38,0,0,0,1.65-.44,1.58,1.58,0,0,1,1.19-.45,1.92,1.92,0,0,1,.89.22,2.32,2.32,0,0,0,1.05.23,3.28,3.28,0,0,0,1.94-.82,10,10,0,0,0,1.64-1.57,1.2,1.2,0,0,0,1.05.37l1.12-.15a4.19,4.19,0,0,1,1.12,0,3.74,3.74,0,0,1,1.34.52,4.11,4.11,0,0,1,.75-.44,6.24,6.24,0,0,1,1.12-.45,3.68,3.68,0,0,1,1-.15c.35,0,.52.2.52.6a8.41,8.41,0,0,1,4.18-.82,32.38,32.38,0,0,0,4,.22,12.43,12.43,0,0,0,3.81-.6,12.61,12.61,0,0,1,3.8-.59,4.66,4.66,0,0,0,1.27-.15,4,4,0,0,1,1.12-.15c1.2.5,1.87.64,2,.44a1,1,0,0,1,.82-.29,4.33,4.33,0,0,1,2.31.82,6.6,6.6,0,0,0,4.11.52,2.9,2.9,0,0,0,1.34,1.34,3.56,3.56,0,0,0,.3,2.09,9,9,0,0,0,1.19,1.79c-.1.5-.2.95-.29,1.35s.09.79.59,1.19a4.39,4.39,0,0,1-1.19,1.49,4.43,4.43,0,0,0-1.2,1.5,2.5,2.5,0,0,0-1.94.15,8.78,8.78,0,0,1-1.64.74,4.23,4.23,0,0,1-2.09.08,1.83,1.83,0,0,0-1.79.52,1.08,1.08,0,0,0-1.42-.37,3.77,3.77,0,0,1-1.56.37c-1.3-.2-2.05-.17-2.24.07a1.09,1.09,0,0,1-.9.38c-.1-.5-.42-.7-1-.6a.92.92,0,0,1-1.12-.45,1.5,1.5,0,0,1-1.79.6,8.36,8.36,0,0,0-1.94-.3,8.48,8.48,0,0,0-3.66.82,3.45,3.45,0,0,1-3.65-.52,2,2,0,0,1-1.5.6,5.49,5.49,0,0,1-1.34-.15,5.55,5.55,0,0,0-1.34-.15,5.35,5.35,0,0,0-2.09.37,5,5,0,0,1-1.94.37,3.23,3.23,0,0,1-2.09-.59,8.4,8.4,0,0,1-3.81.67,6.54,6.54,0,0,0-3.66.82,2.66,2.66,0,0,1-2.24-.3,12.4,12.4,0,0,1-5.74,1.05,14.92,14.92,0,0,0-5.9.89,2.15,2.15,0,0,1-1.34-.67c-.3-.35-.8-.32-1.5.08a16.66,16.66,0,0,0-1.56,5.59,10.39,10.39,0,0,0,.82,5.75,5.48,5.48,0,0,1-.75,1.12,5.06,5.06,0,0,0-.74,1.12,3,3,0,0,0,.74,2.24,1.28,1.28,0,0,1-.3.82,2.18,2.18,0,0,0-.44,2,5.46,5.46,0,0,1,.14,1.2,7.08,7.08,0,0,1-.29,2,7.34,7.34,0,0,0-.3,2.17,2.51,2.51,0,0,0,.3,1.27,2.61,2.61,0,0,1,.29,1.26c0,.5-.17.8-.52.9a.91.91,0,0,0-.67.6,1.53,1.53,0,0,0,.15,1.19q.3.45-.45,1.05a7.37,7.37,0,0,1,1.12,3.8,5.53,5.53,0,0,0,1.42,3.66,4,4,0,0,0-.22,2.76c.24,1.05.42,2,.52,2.76a2.3,2.3,0,0,0,1.42-.15,2.42,2.42,0,0,1,1.41-.15,4.31,4.31,0,0,0,2.17.6,10.21,10.21,0,0,0,2.16-.22,15.25,15.25,0,0,1,2.09-.3,3.6,3.6,0,0,1,2.09.52,4,4,0,0,1,1.94-.3q1.5,0,3.51-.15a37.86,37.86,0,0,0,4.11-.52,10.51,10.51,0,0,0,3.58-1.27,2.57,2.57,0,0,1,1,.45c.25.2.52.4.82.6a6.45,6.45,0,0,1,3.43-.82,15.51,15.51,0,0,0,3.44-.23.93.93,0,0,0,.67.75l1,.3a9.18,9.18,0,0,1,4.1-.53,12.72,12.72,0,0,0,4.11-.22,6.6,6.6,0,0,0,2.16-1,6.56,6.56,0,0,1,2.17-1,3.73,3.73,0,0,0,2.46.67,20.33,20.33,0,0,0,2.91-.37,20.63,20.63,0,0,1,3.13-.37,6.19,6.19,0,0,1,3.29.82v1.49c.5.4,1,.77,1.49,1.12a6.19,6.19,0,0,1,1.34,1.27,3,3,0,0,1-.74,2.24c0,.2.07.32.22.37l.6.22a1.58,1.58,0,0,1,.52.3q.15.15,0,.75c.1.4-.15.82-.74,1.27a8.82,8.82,0,0,1-2.09,1.12,19.27,19.27,0,0,1-2.54.74,3.64,3.64,0,0,1-2.09,0,20.16,20.16,0,0,1-4.41,1.87,17.22,17.22,0,0,1-4.85.67,8.57,8.57,0,0,1-1.56-.15,9.57,9.57,0,0,0-1.72-.15,8.09,8.09,0,0,1-3.13.23,2.55,2.55,0,0,0-2.09.52q-.75-.3-1.65-.6a5.56,5.56,0,0,0-1.79-.3q-1.94.3-2.16-.15a1.21,1.21,0,0,0-.82-.59,7.33,7.33,0,0,1-3.51.37,4.92,4.92,0,0,0-3.21.52,2,2,0,0,1-1-.15,1.66,1.66,0,0,1-.37-.3q-.15-.13-.45,0a14.46,14.46,0,0,0-1.35.9,8.24,8.24,0,0,0-2.23,0,2.73,2.73,0,0,1-2.09-.45,9.41,9.41,0,0,1-1.57.75,5.75,5.75,0,0,0-1.57.89c-.5.2-.82.2-1,0a1,1,0,0,0-.82-.29,1.49,1.49,0,0,0-1,.29,1.28,1.28,0,0,1-.82.3,2.83,2.83,0,0,1-.9-.15,2.77,2.77,0,0,0-.89-.15,3.57,3.57,0,0,0-1.64.38,3.77,3.77,0,0,1-1.65.37,9,9,0,0,0-5.22.52,9.17,9.17,0,0,1-4.18,1,3.2,3.2,0,0,1-2.09-.74,2.72,2.72,0,0,0-2.39-.45c.1-.6,0-1-.3-1.12a3,3,0,0,1-.74-.52,2.79,2.79,0,0,1-.3-1.27,2.79,2.79,0,0,0-.3-1.27,4.42,4.42,0,0,0-1.27-1.72,4.83,4.83,0,0,1-1.27-1.56,2.16,2.16,0,0,1-.22-1.12c.05-.25-.13-.62-.52-1.12a1.35,1.35,0,0,1-.15-1.35c.2-.39-.1-.69-.9-.89a3.14,3.14,0,0,0,.75-3.14,15.33,15.33,0,0,1-.45-3.43,4.1,4.1,0,0,1,.37-1.72,4.38,4.38,0,0,0,.38-1.86,1.14,1.14,0,0,0-.38-.82,1.3,1.3,0,0,1-.37-1q.15-1.65-.3-1.65a5.42,5.42,0,0,0,.75-2.53c.1-1.1.15-2,.15-2.84a6.78,6.78,0,0,0-.45-2.39,6.7,6.7,0,0,1-.45-2.39,10.86,10.86,0,0,1,.37-2.83,10.53,10.53,0,0,0,.38-2.84c-.3-.5-.35-.89-.15-1.19a1.85,1.85,0,0,0,.3-1.05,12.28,12.28,0,0,0-.23-2,6,6,0,0,0-.67-2,4.67,4.67,0,0,0,.9-2.91,4,4,0,0,1,1.19-2.91,14.08,14.08,0,0,0-.15-3.51,5.32,5.32,0,0,1,.6-3.5,3.55,3.55,0,0,1-.6-2c0-.75,0-1.49.08-2.24a16.74,16.74,0,0,0,0-2.24,4.12,4.12,0,0,0-.68-2,2.32,2.32,0,0,0,.83-1.72,9,9,0,0,0-.23-2.46q-.3-1.35-.6-2.61a9.62,9.62,0,0,1-.29-2.17,1.29,1.29,0,0,0,.15-1,1.82,1.82,0,0,1-.15-.67,9.66,9.66,0,0,1,.22-2.17,8.78,8.78,0,0,0,.22-2,5.88,5.88,0,0,0-.29-1.79,5.38,5.38,0,0,1-.3-1.79,14.73,14.73,0,0,1,.82-4.7,5.78,5.78,0,0,0-.38-4.71,3.86,3.86,0,0,1,1.2-2.24,15.85,15.85,0,0,1-.6-5.37,44.06,44.06,0,0,1,.6-5.37,2.55,2.55,0,0,1,.89-.53,1.74,1.74,0,0,0,.9-.67,4.1,4.1,0,0,1,1.57-1,5.24,5.24,0,0,1,1.71-.6,6,6,0,0,1,2.17.08,10.92,10.92,0,0,1,1.79.67,11.18,11.18,0,0,1,1.79,1,5.36,5.36,0,0,0,1.27.75,5.29,5.29,0,0,1,3.21.37,7,7,0,0,0,3.06.67,13,13,0,0,0,2.39-.22,2.86,2.86,0,0,1,2.24.52,11.27,11.27,0,0,1,5.67-1.19q3,.15,5.82.15a2.51,2.51,0,0,0,1.27-.3c.35-.2.72-.4,1.12-.6a12.23,12.23,0,0,0,2.68.3h2.69a8.34,8.34,0,0,0,3.21,0,7.34,7.34,0,0,1,2.17-.3,2.5,2.5,0,0,1,1.26.3,2.51,2.51,0,0,0,1.27.3,19.42,19.42,0,0,0,3.36-.3,19.42,19.42,0,0,1,3.36-.3,3.4,3.4,0,0,1,2.54-1.12,5.7,5.7,0,0,0,2.83-.82,14.36,14.36,0,0,0,4.41.82,8.14,8.14,0,0,0,4.4-1.12,5.47,5.47,0,0,0,1.27.45,1,1,0,0,1,.82.9,2.65,2.65,0,0,1,2.16.22,3.76,3.76,0,0,0,1.87.67c.1.6.17,1.2.22,1.79A7.53,7.53,0,0,0,226.87,142.78Z"/><path class="cls-2" d="M340.31,174.73a2.87,2.87,0,0,0-.82,2.46,14.13,14.13,0,0,1,.22,2.46c0,.8-.12,1.3-.37,1.5a3.93,3.93,0,0,0-.82,1l-1.19,1.34a25.65,25.65,0,0,1-2.24,4.71,7.37,7.37,0,0,0-1.2,3.65c-.59,0-.87.2-.82.6a1.49,1.49,0,0,1-.22,1,2,2,0,0,1-1,.44c-.45.1-.53.4-.23.9a8.81,8.81,0,0,0-3.13,1.94c-1.3,1.1-2.24,1.94-2.84,2.54A4.21,4.21,0,0,0,321.8,201a8.37,8.37,0,0,1-2.83,2.54,1.12,1.12,0,0,1-1,.15,1.17,1.17,0,0,0-1,.14,14.09,14.09,0,0,1-2.53,1.65,2.42,2.42,0,0,0-1.2,1,1.19,1.19,0,0,0,.53.67c.24.15.52.3.82.45a2.78,2.78,0,0,1,.74.52.89.89,0,0,1,.15.9,34.49,34.49,0,0,1,9,4.48,2.37,2.37,0,0,0,.74,2.53,13.52,13.52,0,0,0,1.65,1.05,1.44,1.44,0,0,0,.74,1.64,4.43,4.43,0,0,1,1.5,1.2c.39.89.74,1.34,1,1.34a1,1,0,0,1,.75.3,4.76,4.76,0,0,0,1,2c.54.75.87,1.17,1,1.27a2.45,2.45,0,0,1,.15,1.42,6.51,6.51,0,0,0-.15,1.42,4.75,4.75,0,0,0,.89,2.76,2.51,2.51,0,0,1,.15,2.76,1.37,1.37,0,0,0,.75.75,1.44,1.44,0,0,1,.75.89,5.94,5.94,0,0,1,.22,2,4.63,4.63,0,0,0,.22,1.86,4.24,4.24,0,0,0,.67,1.5,2.93,2.93,0,0,1,.38,1.79,6.2,6.2,0,0,1-1,3.43c-.65,1-1.32,2-2,3a9.83,9.83,0,0,0-2.76,1,3.46,3.46,0,0,0-1.72,2.31,16.73,16.73,0,0,1-4.47,0,4.3,4.3,0,0,0-1.05-1.57,11.84,11.84,0,0,1-1.12-1.12,6.77,6.77,0,0,1-.89-1.27,4.21,4.21,0,0,1-.38-2,3.14,3.14,0,0,0-.52-1.72,2.23,2.23,0,0,0-.15-2.46c-.05-.3-.32-.4-.82-.3a3.15,3.15,0,0,0,.37-1.87,1.71,1.71,0,0,0-1.12-1.56,1.28,1.28,0,0,1,.38-1.05.82.82,0,0,0,.37-.59,1.85,1.85,0,0,0-.75-1.5c-.49-.39-.49-1,0-1.79A3.94,3.94,0,0,1,318,231a4.12,4.12,0,0,0-1.27-1.94,5.62,5.62,0,0,0,.07-3q-.37-1.35-2.46-1.5a5.82,5.82,0,0,0-1.79-2c-.5-.25-1-.47-1.5-.67.1-.4.08-.68-.07-.82a3.12,3.12,0,0,0-.6-.45,1.9,1.9,0,0,1-.59-.53,1.17,1.17,0,0,1-.23-.74c-1.19.1-1.92-.1-2.16-.6a5.18,5.18,0,0,0-1.57-1.64,2.12,2.12,0,0,1-1.27-.08,5.68,5.68,0,0,1-.89-.44,4.2,4.2,0,0,0-.83-.38,4.11,4.11,0,0,0-1.19-.15,1.21,1.21,0,0,0-.52-.67,3.16,3.16,0,0,1-.67-.52,9.86,9.86,0,0,1-2.47-.37,2.44,2.44,0,0,0-2.31.37,1.57,1.57,0,0,1-.75-.52c-.2-.25-.4-.47-.59-.67a2,2,0,0,0-.68-.45c-.24-.1-.57,0-1,.3a5.42,5.42,0,0,0-1.41-1.65c-.45-.29-1,.06-1.72,1.05a1.69,1.69,0,0,0-1.27-.67,7.19,7.19,0,0,0-1.72.07c-.59.1-1.19.18-1.79.23a2.78,2.78,0,0,1-1.49-.23,11.09,11.09,0,0,1-1.34.45,10.64,10.64,0,0,0-1.35.45c-.89-.1-2.06-.17-3.5-.23s-2.91,0-4.41.08a36.58,36.58,0,0,0-4.25.52,7.64,7.64,0,0,0-3.06,1.12,20.45,20.45,0,0,0,.15,4.4,17.69,17.69,0,0,0,1.34,4.26c-.3,2-.35,3.13-.15,3.43l1.2,1.79a26.23,26.23,0,0,0-.23,4.26,12.42,12.42,0,0,0,1,4.1q0,.75.45.9a1.88,1.88,0,0,1,.75.45,1.37,1.37,0,0,1,.37.74,2.3,2.3,0,0,0,.37.9,5.41,5.41,0,0,0-2.68,3.06,10.88,10.88,0,0,1-1.94,3.51,4.45,4.45,0,0,0-3.06.74,4.7,4.7,0,0,1-2.77.9,2.17,2.17,0,0,1-1.34-.45,3.35,3.35,0,0,0-1.49-.6,18.46,18.46,0,0,0-1-1.94,2.6,2.6,0,0,0-1.72-1.19c-.2-1.39-.57-2.22-1.12-2.47a3.8,3.8,0,0,1-1.42-1.11.89.89,0,0,0-.15-.9,1,1,0,0,1-.29-.75,1.46,1.46,0,0,1,.22-1,1.75,1.75,0,0,1,.6-.37,3.56,3.56,0,0,0,.59-.3c.15-.1.23-.4.23-.89a2.32,2.32,0,0,0-.23-1,2,2,0,0,1-.22-.89.89.89,0,0,1,.37-.83c.25-.14,0-.42-.82-.82a2.31,2.31,0,0,1,.23-1,2.32,2.32,0,0,0,.22-1,10.71,10.71,0,0,0-.22-2.24c-.15-.69-.33-1.39-.53-2.09a1.39,1.39,0,0,0-1-1,1.36,1.36,0,0,1-1-.9,7,7,0,0,0,.82-4.4,17.27,17.27,0,0,0-.82-4.4.61.61,0,0,0-.74-.52c-.4,0-.65-.08-.75-.38q.3-.75.6-1.71a1.82,1.82,0,0,1,1.34-1.27,3.14,3.14,0,0,1-.22-1.5,2.64,2.64,0,0,1,.52-1.34c-.2-.4-.37-.8-.52-1.19a1.21,1.21,0,0,0-1-.75c.49-.5.59-.94.3-1.34a3.3,3.3,0,0,1-.6-1.35,5.76,5.76,0,0,0,1-4,26.25,26.25,0,0,1-.3-4,1.59,1.59,0,0,1,.38-1,1.59,1.59,0,0,0,.37-1.05,3.81,3.81,0,0,0-.22-1.34,3.8,3.8,0,0,1-.23-1.34,1.85,1.85,0,0,1,.3-1.05,3.92,3.92,0,0,0,.45-.89,1.44,1.44,0,0,1-.15-1.05,1.33,1.33,0,0,0,.15-.6,6.73,6.73,0,0,0-.75-2.53c-.5-1.1-.5-1.89,0-2.39a7.39,7.39,0,0,1-.89-3.66,27.5,27.5,0,0,0,.15-2.91,9,9,0,0,0-.38-2.69,3.74,3.74,0,0,0-1.41-1.94,25.71,25.71,0,0,0-.38-4.4,25.7,25.7,0,0,1-.37-4.4c-.3-.8-.33-1.27-.08-1.42a.63.63,0,0,0,.38-.53,2.87,2.87,0,0,0-.6-1.71,3.09,3.09,0,0,1-.6-1.87,2,2,0,0,1,.23-.89,2.32,2.32,0,0,0,.22-1.05,1.83,1.83,0,0,0-.45-1q-.45-.6.45-.9a4.82,4.82,0,0,1-.6-1.42,10.24,10.24,0,0,0-.44-1.41,16,16,0,0,1,2.53-4.11,6.89,6.89,0,0,0,1.5-4.7c.69-.1,1.36-.22,2-.37a9.63,9.63,0,0,1,2.17-.23,11.66,11.66,0,0,0,3.8.23A3.3,3.3,0,0,1,260,142a18.52,18.52,0,0,1,4.86-1.12c1.64-.15,3.3-.25,5-.3l5-.15a25.09,25.09,0,0,0,5-.67,14.75,14.75,0,0,0,1.34.74,14.35,14.35,0,0,0,1.34.6,2.12,2.12,0,0,0,1.27-.37,6,6,0,0,1,1.27-.67,11.65,11.65,0,0,0,3.21.15c1-.1,2.11-.15,3.21-.15a7.94,7.94,0,0,1,2.39.37,7.89,7.89,0,0,0,2.39.37c1,.6,1.54.75,1.64.45s.45-.45,1-.45a10.23,10.23,0,0,1,2.09.3c.9.2,1.44,0,1.65-.6a12.45,12.45,0,0,0,3,.53,24.49,24.49,0,0,1,3.14.37,2.31,2.31,0,0,1,1.49.82,2,2,0,0,0,1,.82,2.87,2.87,0,0,1,2.32.52,3,3,0,0,0,1.86.83c-.1.49.05.74.45.74s.5.25.3.75a10.12,10.12,0,0,1,3.73,1.94c.7.1,1.47.22,2.31.37a8.29,8.29,0,0,1,2.17.67,2.71,2.71,0,0,1,.89.68,8.08,8.08,0,0,0,.6.67,5.52,5.52,0,0,0,1,.22,1.56,1.56,0,0,1,.89.37.75.75,0,0,1,.37.6,1.35,1.35,0,0,0,.38.75,3.32,3.32,0,0,0,1.19.82c.4.15.5.62.3,1.42h1.94a1.17,1.17,0,0,0,.23,1.12,1,1,0,0,1,.07,1.12,2.7,2.7,0,0,0,.9,1.19,5.69,5.69,0,0,1,1,1,4,4,0,0,1,.3,1.5c0,.5.4.74,1.19.74v1.94a5.37,5.37,0,0,0,2.24,1.94,3.69,3.69,0,0,0,.37,2.39A13.55,13.55,0,0,0,340,169.2c-.1,1-.15,1.94-.15,2.84A8.43,8.43,0,0,0,340.31,174.73ZM325.09,172a8.82,8.82,0,0,1-1.5-4.18,2.7,2.7,0,0,1-1.34-.9c-.3-.39-.65-.84-1.05-1.34a4.85,4.85,0,0,0-.52-1.42,4.69,4.69,0,0,1-.52-1.41,7.86,7.86,0,0,1-4.33-3.14,2.37,2.37,0,0,1-1.86-.6,10.24,10.24,0,0,0-1.57-1.34,3,3,0,0,1-1.35-.3,2.91,2.91,0,0,0-1.34-.3A19.76,19.76,0,0,1,305.9,155a7.35,7.35,0,0,0-3.06-1.34,11.57,11.57,0,0,0-2.91-.22,11.66,11.66,0,0,1-2.91-.23,11.78,11.78,0,0,1-1.42-.37,4.38,4.38,0,0,0-1.41-.22c-1.2.2-1.85.17-1.94-.08s-.25-.37-.45-.37a3.71,3.71,0,0,1-2.46.59,23.45,23.45,0,0,0-2.47-.14,4.7,4.7,0,0,0-1.56.29,4.58,4.58,0,0,1-1.57.3,5.43,5.43,0,0,1-1.34-.15,6.12,6.12,0,0,0-1.35-.15,5.08,5.08,0,0,0-1.27.15,4,4,0,0,1-1.12.15,2.77,2.77,0,0,1-.89-.15,3.64,3.64,0,0,0-1-.15,7.26,7.26,0,0,0-2.31.38,7.25,7.25,0,0,1-2.31.37q-1.05-.45-1.5,0a10.13,10.13,0,0,0-2.09-.07,13.45,13.45,0,0,0-2.09.37,17.14,17.14,0,0,0-1.94-.45l-1.94-.3c-.7.4-1.09.77-1.19,1.12s-.7.43-1.79.23c.2.79.37,1.64.52,2.53a6.8,6.8,0,0,0,1,2.54,4,4,0,0,1-1,1.64,1.5,1.5,0,0,0-.52,1.2,2.54,2.54,0,0,0,.67,1.12,3.87,3.87,0,0,1,.82,1.41,8.61,8.61,0,0,0-.45,4.18,6.55,6.55,0,0,0,1.94,3.74,1.46,1.46,0,0,0-.22,1,4.11,4.11,0,0,0,.3,1.12,7,7,0,0,1,.37,1.19,3.4,3.4,0,0,1,0,1.42,20.63,20.63,0,0,1,1.79,2.54c.4.7.3,1.74-.3,3.13a1,1,0,0,0,.75.75c.4.1.54.4.45.9-.7.2-1.05.84-1.05,1.94a8.57,8.57,0,0,0,.15,1.56,8.84,8.84,0,0,1,.15,1.57,12.64,12.64,0,0,1-.45,3.21,5.29,5.29,0,0,0,0,3.06,2.25,2.25,0,0,1-.74.9,1.15,1.15,0,0,0-.45,1,1.46,1.46,0,0,1,.6.82,1.37,1.37,0,0,0,.59.82,5.69,5.69,0,0,1,2.17-.15,13,13,0,0,0,2,.15c-.4.2-.47.45-.22.75s.47.55.67.75a16.21,16.21,0,0,0,5.37-.3,24.65,24.65,0,0,1,5.38-.6,12.23,12.23,0,0,1,2.68.3,12.39,12.39,0,0,0,2.69.3,2.91,2.91,0,0,0,1.34-.3,3,3,0,0,1,1.35-.3,7.63,7.63,0,0,0,3.06,0,2.08,2.08,0,0,1,1.86.3l3.14-1.42a5.26,5.26,0,0,1,3.43-.22,9.53,9.53,0,0,0,2.69-1.27,3.24,3.24,0,0,1,3-.23,3.35,3.35,0,0,0,.68-.89,1.7,1.7,0,0,1,1-.75c.29.2.52.15.67-.15s.42-.34.82-.15a13.24,13.24,0,0,1,1.57-1.34,5.91,5.91,0,0,0,1.41-1.49,5.3,5.3,0,0,0,2.17-.9c.74-.49,1.44-1,2.09-1.49a17.55,17.55,0,0,1,2-1.34,5.94,5.94,0,0,1,2.24-.75,4.3,4.3,0,0,1,1.57-2.17,7,7,0,0,0,1.87-2,1.31,1.31,0,0,1,.22-1.19,1.37,1.37,0,0,0,.22-1.2,5.36,5.36,0,0,1,1.5-.74c-.1-.7,0-1.15.37-1.35s.47-.59.37-1.19a3.46,3.46,0,0,0,1.05-2.39,10.81,10.81,0,0,1-.15-1.79A2.19,2.19,0,0,0,325.09,172Z"/><path class="cls-2" d="M389,210.85a6.09,6.09,0,0,0,1,1.12,9.52,9.52,0,0,1,1.12,1.27,4.24,4.24,0,0,1,.9,1.27,7,7,0,0,0,.74,1.27,3,3,0,0,1,.75,2,2.17,2.17,0,0,0,1.34,1.87,2.72,2.72,0,0,0,.3,2.31,3,3,0,0,1,.6,2c.79.79,1.54,1.61,2.24,2.46a13.33,13.33,0,0,1,1.79,2.91c.3-.1.57-.5.82-1.19l.82-2.32a23.7,23.7,0,0,0,.75-2.54q.3-1.26.45-1.71a3.08,3.08,0,0,1,.14-2.09c.3-.8.5-1.29.6-1.5a4.81,4.81,0,0,0,.52-1.79c.05-.59.13-1.19.23-1.79a6.77,6.77,0,0,1,.52-1.71,6.05,6.05,0,0,1,1.27-1.72,4.18,4.18,0,0,0,.3-1.57,3,3,0,0,1,.45-1.56,5.23,5.23,0,0,1,1.12-1.72,17,17,0,0,0,1.26-1.42c-.1-1.09,0-1.77.38-2a5.69,5.69,0,0,0,1.27-1.56v-2.39a5.17,5.17,0,0,0,1.19-1.34,10.49,10.49,0,0,0,.75-1.5,10.18,10.18,0,0,0,1-3,21.41,21.41,0,0,1,.67-3,17.36,17.36,0,0,1,.67-1.71c.25-.55.47-1.07.67-1.57.2-.8.32-1.34.38-1.64a8.77,8.77,0,0,1,.82-1.94,3.64,3.64,0,0,0,.29-1.2V180.7c.8-.1,1.12-.47,1-1.12a1.38,1.38,0,0,1,.67-1.57c.49-.4.74-1.29.74-2.69a6.53,6.53,0,0,1,1.5-4,2.48,2.48,0,0,1,.14-1.49,2.56,2.56,0,0,0,.15-1.49,4.52,4.52,0,0,0,1.65-2.39,5.25,5.25,0,0,0,0-3,2.63,2.63,0,0,1,.82-.52c.34-.15.52-.32.52-.52a4.37,4.37,0,0,1,.9-2.61,6.84,6.84,0,0,0,1.19-1.87c.2-.49.4-1,.6-1.42a12.14,12.14,0,0,1,.74-1.41v-2.09a1.59,1.59,0,0,1,.38-1.05c.24-.3.49-.62.74-1a2.51,2.51,0,0,0,.45-1.19,2.86,2.86,0,0,0-.37-1.57,2.27,2.27,0,0,0,1.34-1.34,11.24,11.24,0,0,0,.45-1.94,3.06,3.06,0,0,0,1.42-1.72,4,4,0,0,1,1.27-1.87,3.71,3.71,0,0,1,1.41,0c.45.1.68-.19.68-.89.89.5,1.71,1,2.46,1.49a11.61,11.61,0,0,1,2.16,1.94,2.05,2.05,0,0,1,1.57.75,5.24,5.24,0,0,1,1,1.86,6.32,6.32,0,0,1,.3,2.39,4.34,4.34,0,0,1-.82,2.32v1.56a1.41,1.41,0,0,1-.74,1.27,4.08,4.08,0,0,1-.45,3.43,4.83,4.83,0,0,1-2.24,2.54c0,1.3-.13,2-.37,2.09a1.52,1.52,0,0,0-.68.6,2.6,2.6,0,0,0-.37,1.57,3.11,3.11,0,0,1-.82,2,1.86,1.86,0,0,0,0,1.49c.2.3-.15.65-1,1.05a10.32,10.32,0,0,0,.07,1.57c0,.24-.37.47-1.27.67.2.59.32.94.37,1a3.62,3.62,0,0,1-.07,1.2c-.6.1-.9.29-.9.59a1.05,1.05,0,0,1-.29.75,4,4,0,0,0-1.12,2.91,3.57,3.57,0,0,1-1.12,2.76,3.71,3.71,0,0,1-.08,1.64,7.12,7.12,0,0,1-.6,1.42c-.24.45-.49.95-.74,1.49a2.91,2.91,0,0,0-.23,1.72,3.45,3.45,0,0,0-2,2.61,5.76,5.76,0,0,1-1.57,3.06,1.79,1.79,0,0,0,0,1c.1.2-.1.5-.6.89a1.89,1.89,0,0,0-.22,1.12,1.94,1.94,0,0,1-.22,1.12,3.49,3.49,0,0,1-.6.9,4.92,4.92,0,0,0-.6.75,2.55,2.55,0,0,0-.37,1.86c.15.45-.28,1.07-1.27,1.87a2.38,2.38,0,0,0-.45,1.64,4.4,4.4,0,0,1,.15,1,1.31,1.31,0,0,0-.74.82,7.08,7.08,0,0,1-.45,1.12,8.59,8.59,0,0,1-.6,4.63,12.14,12.14,0,0,0-1,4.48,9,9,0,0,0-2.54,2.09,1.71,1.71,0,0,1,.3,1,1.71,1.71,0,0,0,.3,1,9.93,9.93,0,0,1-1.65,3.58c-.1.5-.2,1.07-.3,1.72a1.88,1.88,0,0,1-.89,1.42,3,3,0,0,1-.3,2.61,3.93,3.93,0,0,0-.45,2.91,5.83,5.83,0,0,0-1.64,3.88,4.81,4.81,0,0,0-1.12,1.79c-.25.7-.47,1.4-.67,2.09s-.42,1.37-.67,2a4.09,4.09,0,0,1-1.27,1.71,2,2,0,0,1-.15,1.35,2.39,2.39,0,0,0-.15,1.49h-1.94a1.27,1.27,0,0,0-.3,1.49,3,3,0,0,0-1.19.38,5.58,5.58,0,0,1-1.05.52c.2.69.38,1.36.53,2s.32,1.32.52,2a5.56,5.56,0,0,0-1.79.3,6,6,0,0,1-1.8.3,3.47,3.47,0,0,1-2.31-.83,5.31,5.31,0,0,0-2.16-1.11,1.76,1.76,0,0,0-.08-1.2,8.54,8.54,0,0,0-.82-.89,2.51,2.51,0,0,1-.82-1.35,8.18,8.18,0,0,0-.37-1.49,10.19,10.19,0,0,1-1.72-3.81,3.42,3.42,0,0,0-2.16-2.61v-.75a1.61,1.61,0,0,0-.3-.89,20.28,20.28,0,0,1-2.09-3.66,6.35,6.35,0,0,0-2.84-3.06,2.28,2.28,0,0,0,0-1.64,3,3,0,0,1-.3-1.34,2.64,2.64,0,0,0-.74-.75,2.26,2.26,0,0,1-.75-.9,6.22,6.22,0,0,1-1.19-1.94,2.16,2.16,0,0,1,.15-1.34,10.56,10.56,0,0,1-1.2-2.84,6,6,0,0,0-1.49-2.68c-.5-.7-.7-1.22-.6-1.57a1.15,1.15,0,0,0-.45-1.12,8,8,0,0,1-.59-.67.82.82,0,0,1-.15-.82,2.51,2.51,0,0,0-1.12-.3c-.35,0-.72-.25-1.12-.75-.1-.49-.18-.92-.23-1.27a7.82,7.82,0,0,1-.07-1.12c0-.49-.32-.91-1-1.26a2.08,2.08,0,0,1-1-2c-.6-.6-.85-1-.75-1.19a2.09,2.09,0,0,0,.15-.9,1.91,1.91,0,0,1-1-1.27c-.05-.45-.12-.92-.22-1.42a3.32,3.32,0,0,0-.6-1.34,2.86,2.86,0,0,0-1.64-.89,2.75,2.75,0,0,0,.15-2.62,7.36,7.36,0,0,1-.9-2.46,1.67,1.67,0,0,1-.15-.75,1.65,1.65,0,0,0-.15-.74,6.31,6.31,0,0,0-2.83-3,21.05,21.05,0,0,0-.6-2.39l-.6-1.79a14.13,14.13,0,0,0-.74-1.79,4.34,4.34,0,0,0-1.64-1.64,16.09,16.09,0,0,0-.82-2.39,14.74,14.74,0,0,1-.83-2.39,4.13,4.13,0,0,1-1.19-1.64,16.87,16.87,0,0,1-.75-2.09,13.3,13.3,0,0,0-.67-1.86,2.19,2.19,0,0,0-1-1.12v-.9a2.3,2.3,0,0,0-.3-.9,5.15,5.15,0,0,0-.52-1,1.82,1.82,0,0,1-.22-1,8.39,8.39,0,0,1-1.12-1.41,4.75,4.75,0,0,1-.08-1.12c-.2-.7-.32-1.12-.37-1.27a13.83,13.83,0,0,0-.67-1.27,1.35,1.35,0,0,1-.23-1,6.6,6.6,0,0,0,.08-.9,1.05,1.05,0,0,0-.15-.59c-.1-.15-.45-.28-1.05-.38a4.32,4.32,0,0,0-.07-1.94,8.21,8.21,0,0,0-.52-.89,3.35,3.35,0,0,1-.45-1.2,10.1,10.1,0,0,1-.15-1.94,1.42,1.42,0,0,0-1-.74,1.37,1.37,0,0,1-1.05-.9,11.05,11.05,0,0,1-1.19-2.61q-.45-1.42-.9-2.76a.91.91,0,0,0,.6-.67,8.77,8.77,0,0,1,.37-1.05,5.56,5.56,0,0,1,.6-1,3.52,3.52,0,0,1,1.12-1,2,2,0,0,1,1.86-1.05c.65.1,1.17-.25,1.57-1a5.88,5.88,0,0,1,1.87,1.26,1.65,1.65,0,0,0,2.16.08,11.41,11.41,0,0,1,2.24,1.86,30.75,30.75,0,0,0,2.24,2.17,9.08,9.08,0,0,0,1.64,4.33,5.89,5.89,0,0,0,.15,2.39,6.46,6.46,0,0,0,.75,1.56,13.13,13.13,0,0,1,.82,1.42,6.38,6.38,0,0,1,.52,1.94,1.75,1.75,0,0,1,.52,1.05,3.66,3.66,0,0,0,.38,1.19,2.42,2.42,0,0,0,.44.82c.2.25.4.52.6.82a5,5,0,0,1,.52,1.87,10,10,0,0,0,.38,2,12.62,12.62,0,0,0,1,1.87,2.16,2.16,0,0,1,.37,1.87,2.52,2.52,0,0,1,1.27,1.34.92.92,0,0,0,1.27.6,3.32,3.32,0,0,1-.3,1.49c.2.4.69.6,1.49.6a9,9,0,0,0,1.12,3.43,9.3,9.3,0,0,0,2.46,2.54,8.37,8.37,0,0,0,.45,2.68,3.66,3.66,0,0,0,1.79,2.09,3.82,3.82,0,0,0,.23,1.35,2.4,2.4,0,0,1,.07,1.34,8.23,8.23,0,0,1,.45,1,1.43,1.43,0,0,0,.89.74,20.16,20.16,0,0,0,1.35,5.3q1,2.61,1.79,5.15a7.92,7.92,0,0,0,1,1.12l1,1a15.45,15.45,0,0,1,.82,2.61,3.25,3.25,0,0,0,1.72,2v2.83a3.1,3.1,0,0,0,.67.6s.07.3.07.9Z"/><path class="cls-2" d="M535,142.78a1.12,1.12,0,0,0-.82.68.94.94,0,0,1-1,.52.74.74,0,0,0,.52,1,.83.83,0,0,1,.67.82,1.3,1.3,0,0,1-.82,1.27,1.6,1.6,0,0,0-1,1.27c-1-.2-1.67-.15-2,.15a11.86,11.86,0,0,1-1.56,1,3.62,3.62,0,0,0-1.65.08,6,6,0,0,1-1.64.22,1.42,1.42,0,0,0-1,.45,2.13,2.13,0,0,1-1,.59,6.76,6.76,0,0,1-2.46.15,4.32,4.32,0,0,0-2.46.45.77.77,0,0,0-1.05-.52,4.72,4.72,0,0,1-1.34.22,2.49,2.49,0,0,1-1.35-.37,2.72,2.72,0,0,0-1.49-.37,7.52,7.52,0,0,0-2.46.44,7.38,7.38,0,0,1-2.46.45,9.66,9.66,0,0,1-2.17-.22,9.61,9.61,0,0,0-2.16-.23,1.26,1.26,0,0,0-1.2.53,2,2,0,0,1-1,.82,15.75,15.75,0,0,0-6.12-1,14.59,14.59,0,0,0-6,1.27,9.6,9.6,0,0,0-4.78-.6,11.65,11.65,0,0,1-4.92-.45,5.56,5.56,0,0,1-3.21.6,6.66,6.66,0,0,1-3.06-.9,6.18,6.18,0,0,1-2.54.38c-.9-.05-1.74-.08-2.54-.08a1.18,1.18,0,0,0-.67,1.57,4.85,4.85,0,0,1,.37,1.72,2,2,0,0,1-.22.89,2,2,0,0,0-.23.9,2.93,2.93,0,0,0,.3,1.34,5.41,5.41,0,0,1,.45,1.34,43.05,43.05,0,0,1,.45,6.12c-.3,1.2-.33,1.92-.08,2.17a1.14,1.14,0,0,1,.38.82,2.73,2.73,0,0,1-.15.89,3.32,3.32,0,0,0-.15,1.05,2.18,2.18,0,0,0,.15.82,2.18,2.18,0,0,1,.15.82.93.93,0,0,1-.38.75,1.07,1.07,0,0,0-.37.89,3.4,3.4,0,0,0,.23,1.2,4,4,0,0,1,.22,1.34,2.46,2.46,0,0,1-.22,1.05,2.25,2.25,0,0,0-.23,1,8.85,8.85,0,0,0,.52,1.79,15.28,15.28,0,0,1,.53,1.64,8.61,8.61,0,0,1,4.62-.22,21.55,21.55,0,0,0,4.63.52,5,5,0,0,0,1.94-.37,4.15,4.15,0,0,1,2.09-.23c1.29,0,2.14,0,2.54.08a9.5,9.5,0,0,0,1.19.07,2.33,2.33,0,0,0,1.64-.44,1.62,1.62,0,0,1,1.2-.45,1.92,1.92,0,0,1,.89.22,2.32,2.32,0,0,0,1.05.23,3.28,3.28,0,0,0,1.94-.82,10.41,10.41,0,0,0,1.64-1.57,1.2,1.2,0,0,0,1.05.37l1.12-.15a4.19,4.19,0,0,1,1.12,0,3.74,3.74,0,0,1,1.34.52,4.11,4.11,0,0,1,.75-.44,6.47,6.47,0,0,1,1.11-.45,3.81,3.81,0,0,1,1.05-.15c.35,0,.52.2.52.6a8.41,8.41,0,0,1,4.18-.82,32.38,32.38,0,0,0,4,.22,12.43,12.43,0,0,0,3.81-.6,12.61,12.61,0,0,1,3.8-.59,4.66,4.66,0,0,0,1.27-.15,4,4,0,0,1,1.12-.15c1.2.5,1.87.64,2,.44a1,1,0,0,1,.82-.29,4.33,4.33,0,0,1,2.31.82,6.6,6.6,0,0,0,4.11.52,2.9,2.9,0,0,0,1.34,1.34,3.56,3.56,0,0,0,.3,2.09,9,9,0,0,0,1.19,1.79q-.15.75-.3,1.35c-.1.4.1.79.6,1.19a4.39,4.39,0,0,1-1.19,1.49,4.43,4.43,0,0,0-1.2,1.5,2.5,2.5,0,0,0-1.94.15,8.78,8.78,0,0,1-1.64.74,4.23,4.23,0,0,1-2.09.08,1.83,1.83,0,0,0-1.79.52,1.08,1.08,0,0,0-1.42-.37,3.77,3.77,0,0,1-1.57.37c-1.29-.2-2-.17-2.23.07a1.09,1.09,0,0,1-.9.38c-.1-.5-.42-.7-1-.6a.92.92,0,0,1-1.12-.45,1.51,1.51,0,0,1-1.79.6,8.36,8.36,0,0,0-1.94-.3,8.45,8.45,0,0,0-3.66.82,3.47,3.47,0,0,1-3.66-.52,2,2,0,0,1-1.49.6A5.43,5.43,0,0,1,502,191a5.55,5.55,0,0,0-1.34-.15,5.35,5.35,0,0,0-2.09.37,5,5,0,0,1-1.94.37,3.23,3.23,0,0,1-2.09-.59,8.4,8.4,0,0,1-3.81.67,6.54,6.54,0,0,0-3.66.82,2.66,2.66,0,0,1-2.24-.3,12.4,12.4,0,0,1-5.74,1.05,14.92,14.92,0,0,0-5.9.89,2.12,2.12,0,0,1-1.34-.67c-.3-.35-.8-.32-1.5.08a16.66,16.66,0,0,0-1.56,5.59,10.39,10.39,0,0,0,.82,5.75,5.48,5.48,0,0,1-.75,1.12,5.48,5.48,0,0,0-.75,1.12,3,3,0,0,0,.75,2.24,1.28,1.28,0,0,1-.3.82,2.63,2.63,0,0,0-.45.82,2.4,2.4,0,0,0,0,1.19,4.93,4.93,0,0,1,.15,1.2,7.08,7.08,0,0,1-.29,2,7,7,0,0,0-.3,2.17,2.41,2.41,0,0,0,.3,1.27,2.61,2.61,0,0,1,.29,1.26c0,.5-.17.8-.52.9a.91.91,0,0,0-.67.6,1.53,1.53,0,0,0,.15,1.19q.3.45-.45,1.05a7.37,7.37,0,0,1,1.12,3.8,5.53,5.53,0,0,0,1.42,3.66,4,4,0,0,0-.22,2.76c.24,1.05.42,2,.52,2.76a2.3,2.3,0,0,0,1.42-.15,2.41,2.41,0,0,1,1.41-.15,4.31,4.31,0,0,0,2.17.6,10.21,10.21,0,0,0,2.16-.22,15,15,0,0,1,2.09-.3,3.62,3.62,0,0,1,2.09.52,4,4,0,0,1,1.94-.3q1.5,0,3.51-.15a37.86,37.86,0,0,0,4.11-.52,10.51,10.51,0,0,0,3.58-1.27,2.57,2.57,0,0,1,1,.45,9.71,9.71,0,0,0,.82.6,6.45,6.45,0,0,1,3.43-.82,15.51,15.51,0,0,0,3.44-.23.93.93,0,0,0,.67.75l1,.3a9.18,9.18,0,0,1,4.1-.53,12.72,12.72,0,0,0,4.11-.22,6.6,6.6,0,0,0,2.16-1,6.56,6.56,0,0,1,2.17-1,3.73,3.73,0,0,0,2.46.67,20.33,20.33,0,0,0,2.91-.37,20.63,20.63,0,0,1,3.13-.37,6.19,6.19,0,0,1,3.29.82v1.49c.49.4,1,.77,1.49,1.12a6.43,6.43,0,0,1,1.34,1.27,3.06,3.06,0,0,1-.74,2.24c0,.2.07.32.22.37l.6.22a1.58,1.58,0,0,1,.52.3q.15.15,0,.75c.1.4-.15.82-.75,1.27a8.45,8.45,0,0,1-2.09,1.12,18.69,18.69,0,0,1-2.53.74,3.64,3.64,0,0,1-2.09,0,20.16,20.16,0,0,1-4.41,1.87,17.22,17.22,0,0,1-4.85.67,8.57,8.57,0,0,1-1.56-.15,9.57,9.57,0,0,0-1.72-.15,8.14,8.14,0,0,1-3.14.23,2.57,2.57,0,0,0-2.09.52c-.49-.2-1-.4-1.64-.6a5.56,5.56,0,0,0-1.79-.3q-1.93.3-2.16-.15a1.21,1.21,0,0,0-.82-.59,7.33,7.33,0,0,1-3.51.37,4.91,4.91,0,0,0-3.21.52,2,2,0,0,1-1-.15,1.66,1.66,0,0,1-.37-.3c-.11-.09-.25-.09-.45,0a14.46,14.46,0,0,0-1.35.9,8.24,8.24,0,0,0-2.23,0,2.73,2.73,0,0,1-2.09-.45,9.41,9.41,0,0,1-1.57.75,5.75,5.75,0,0,0-1.57.89c-.5.2-.82.2-1,0a1,1,0,0,0-.82-.29,1.49,1.49,0,0,0-1,.29,1.28,1.28,0,0,1-.82.3,2.83,2.83,0,0,1-.9-.15,2.77,2.77,0,0,0-.89-.15,3.57,3.57,0,0,0-1.64.38,3.77,3.77,0,0,1-1.65.37,9,9,0,0,0-5.22.52,9.2,9.2,0,0,1-4.18,1,3.2,3.2,0,0,1-2.09-.74,2.72,2.72,0,0,0-2.39-.45c.1-.6,0-1-.3-1.12a2.63,2.63,0,0,1-.74-.52,2.79,2.79,0,0,1-.3-1.27,2.79,2.79,0,0,0-.3-1.27,4.42,4.42,0,0,0-1.27-1.72,4.83,4.83,0,0,1-1.27-1.56,2.16,2.16,0,0,1-.22-1.12c0-.25-.13-.62-.52-1.12a1.35,1.35,0,0,1-.15-1.35c.19-.39-.1-.69-.9-.89a3.14,3.14,0,0,0,.75-3.14,15.33,15.33,0,0,1-.45-3.43,4.1,4.1,0,0,1,.37-1.72,4.38,4.38,0,0,0,.38-1.86,1.14,1.14,0,0,0-.38-.82,1.3,1.3,0,0,1-.37-1q.15-1.65-.3-1.65a5.42,5.42,0,0,0,.75-2.53c.09-1.1.15-2,.15-2.84a6.78,6.78,0,0,0-.45-2.39,6.7,6.7,0,0,1-.45-2.39,10.45,10.45,0,0,1,.37-2.83,10.53,10.53,0,0,0,.38-2.84c-.3-.5-.35-.89-.15-1.19a1.85,1.85,0,0,0,.3-1.05,12.28,12.28,0,0,0-.23-2,6,6,0,0,0-.67-2,4.67,4.67,0,0,0,.9-2.91,4,4,0,0,1,1.19-2.91,14.08,14.08,0,0,0-.15-3.51,5.32,5.32,0,0,1,.6-3.5,3.55,3.55,0,0,1-.6-2c0-.75,0-1.49.08-2.24a20.92,20.92,0,0,0,0-2.24,4.12,4.12,0,0,0-.68-2,2.27,2.27,0,0,0,.82-1.72,8.62,8.62,0,0,0-.22-2.46q-.3-1.35-.6-2.61a9.62,9.62,0,0,1-.29-2.17,1.29,1.29,0,0,0,.15-1,1.64,1.64,0,0,1-.15-.67,9.66,9.66,0,0,1,.22-2.17,8.78,8.78,0,0,0,.22-2,5.88,5.88,0,0,0-.29-1.79,5.38,5.38,0,0,1-.3-1.79,14.73,14.73,0,0,1,.82-4.7,5.78,5.78,0,0,0-.38-4.71,3.86,3.86,0,0,1,1.2-2.24,15.85,15.85,0,0,1-.6-5.37,44.06,44.06,0,0,1,.6-5.37,2.55,2.55,0,0,1,.89-.53,1.74,1.74,0,0,0,.9-.67,4.1,4.1,0,0,1,1.57-1,5.16,5.16,0,0,1,1.71-.6,6,6,0,0,1,2.17.08,10.92,10.92,0,0,1,1.79.67,11.63,11.63,0,0,1,1.79,1,5.36,5.36,0,0,0,1.27.75,5.29,5.29,0,0,1,3.21.37,7,7,0,0,0,3.06.67,13,13,0,0,0,2.39-.22,2.86,2.86,0,0,1,2.24.52,11.27,11.27,0,0,1,5.67-1.19q3,.15,5.82.15a2.51,2.51,0,0,0,1.27-.3c.35-.2.72-.4,1.12-.6a12.23,12.23,0,0,0,2.68.3h2.69a8.34,8.34,0,0,0,3.21,0,7.32,7.32,0,0,1,2.16-.3,2.51,2.51,0,0,1,1.27.3,2.51,2.51,0,0,0,1.27.3,19.42,19.42,0,0,0,3.36-.3,19.42,19.42,0,0,1,3.36-.3,3.4,3.4,0,0,1,2.54-1.12,5.7,5.7,0,0,0,2.83-.82,14.36,14.36,0,0,0,4.41.82,8.14,8.14,0,0,0,4.4-1.12,5.47,5.47,0,0,0,1.27.45,1,1,0,0,1,.82.9,2.65,2.65,0,0,1,2.16.22,3.76,3.76,0,0,0,1.87.67c.1.6.17,1.2.22,1.79A7.53,7.53,0,0,0,535,142.78Z"/><path class="cls-2" d="M600.34,152.19a1.47,1.47,0,0,1-1.35-.3,1.43,1.43,0,0,0-1-.45,2.75,2.75,0,0,1-2.39-.15,1,1,0,0,0-.9-.15,2.73,2.73,0,0,1-.89.15,1.62,1.62,0,0,1-1.2-.45,2.21,2.21,0,0,0-1-.59,7.61,7.61,0,0,1-1.49.15h-1.5a5.77,5.77,0,0,0-2.23.37,3.92,3.92,0,0,1-1.35.37,4.34,4.34,0,0,0-1.79-.15,1.74,1.74,0,0,1-.45.3,3.55,3.55,0,0,1-2.39.45,6.76,6.76,0,0,0-2.53.15,3.81,3.81,0,0,0-1,.45c-.55.3-1.12.65-1.72,1s-1.19.77-1.79,1.12a9.21,9.21,0,0,0-1.05.67,13.46,13.46,0,0,1-.67,1.87,13.78,13.78,0,0,0-.67,1.86,40.37,40.37,0,0,0-3.51,2.92,5.44,5.44,0,0,0-1.27,3.2,13.87,13.87,0,0,0-1.49,3,8.08,8.08,0,0,0-.3,2.24,2.76,2.76,0,0,0,.45,1.57,2.72,2.72,0,0,1,.45,1.56c.69.7.94,1.12.74,1.27s.15.43,1,.82a1.38,1.38,0,0,1,.89,1.5,6.12,6.12,0,0,1,2,1.71,2.28,2.28,0,0,0,1.57,1l.52,1a8.21,8.21,0,0,0,.52.89,7.41,7.41,0,0,1,1.79.75,10.49,10.49,0,0,0,1.5.75,5.47,5.47,0,0,0,1.56.37,4.85,4.85,0,0,0,2-.37,3.89,3.89,0,0,0,1.94,1.64h3.51c1.44,0,2.93,0,4.48-.15s3-.25,4.32-.45a6,6,0,0,0,2.91-1,5.2,5.2,0,0,1,1.57.82l1.42,1.12a3.07,3.07,0,0,1,2,.07c.65.25,1.27.52,1.87.82a8.35,8.35,0,0,0,1.87.67,4.27,4.27,0,0,0,2.31-.22l.9,1.19a4.93,4.93,0,0,0,1,1.05c1.1.2,2.19.45,3.28.75a5.36,5.36,0,0,1,2.84,1.94h2.39a1.56,1.56,0,0,0,1.27,1.34,3,3,0,0,1,1.71.9c.4,0,.65.1.75.29a5,5,0,0,0,.3.53,1.45,1.45,0,0,0,.37.37,1.5,1.5,0,0,0,1,0,3.62,3.62,0,0,0,2.39,2.39,5.75,5.75,0,0,0,2.24,3,2.65,2.65,0,0,0,.67,2.39,4.35,4.35,0,0,1,1,2.84,5.26,5.26,0,0,1,.9,1.64,4.15,4.15,0,0,0,1,1.64,7.24,7.24,0,0,0-.22,3.06,16.84,16.84,0,0,0,.67,2.76c.3.9.62,1.79,1,2.69a7.3,7.3,0,0,1,.52,2.69,3.26,3.26,0,0,1-.15,1c-.1.3-.2.6-.29.9a1.27,1.27,0,0,0,.37.74,1.4,1.4,0,0,1,.37.9,1.79,1.79,0,0,1-.45,1.42c-.29.25-.35.77-.15,1.56a4.32,4.32,0,0,0-1.41,1.5,3.36,3.36,0,0,0-.23,1.94c-.5.1-.77.27-.82.52s-.32.42-.82.52a3.35,3.35,0,0,1-.6,2.47,3.63,3.63,0,0,0-.74,2.31c0,.5-.2.77-.6.82a2.31,2.31,0,0,0-1,.37,14,14,0,0,1-.75,2.24c-.6,0-.92.08-1,.23a1.69,1.69,0,0,1-.37.52,17.34,17.34,0,0,0-4,3.06A8.13,8.13,0,0,1,616.9,245a1.48,1.48,0,0,0-1,.67,2.08,2.08,0,0,1-.9.83h-1.79c-.5.49-.92.89-1.27,1.19a3.07,3.07,0,0,0-.82,1.34,21.18,21.18,0,0,0-5.07,3,7.24,7.24,0,0,0-3.06.37,3.53,3.53,0,0,1-2.76-.07c-.5.19-1.55.52-3.14,1a15.84,15.84,0,0,1-3.13.67c-.6,0-.92-.18-1-.52s-.48-.53-1.27-.53a4.11,4.11,0,0,0-1.72.38,4.24,4.24,0,0,1-1.71.37,7.51,7.51,0,0,1-3.14-.67,3.13,3.13,0,0,0-3.13.37c-.8-.3-1.52-.6-2.17-.89a12.43,12.43,0,0,0-2.16-.75,3.08,3.08,0,0,0-1-.15,3,3,0,0,1-1-.15,8.94,8.94,0,0,1-2.32-.89,4.73,4.73,0,0,0-2.46-.45A9.75,9.75,0,0,1,566.3,249a12.65,12.65,0,0,0-4.47-1.42,5.34,5.34,0,0,0-2.69-2.39,1.53,1.53,0,0,0-.6-1l-.89-.6a6.18,6.18,0,0,1-1.27-1.34c-.35-.5-.67-1-1-1.5a4.38,4.38,0,0,1-1.64-1c-.5-.44-1-.92-1.5-1.41a4.17,4.17,0,0,0-.07-1.87,10.15,10.15,0,0,0-1.12-1.72V232.2l-1.49-2.09a4,4,0,0,1-.75-2.39,6.37,6.37,0,0,1,1-3.44,25.93,25.93,0,0,0,1.8-3.28l1.86-.22a4,4,0,0,1,1.34.07,5.84,5.84,0,0,0,1.27.15q.6,0,.9-.9c.6.7,1.17,1.4,1.72,2.09a5.75,5.75,0,0,0,2,1.65,4.08,4.08,0,0,0,.75,2.68,6.91,6.91,0,0,1,1.19,2.54,1.81,1.81,0,0,0,1.2,1.34c.59.2.84.85.74,1.94a9.81,9.81,0,0,0,1.05.6l1.19.6a3.17,3.17,0,0,0,.15,1.12l.45,1.12a5.87,5.87,0,0,0,2.46,1.49,6,6,0,0,1,2.46,1.49A5,5,0,0,1,574,239a1.66,1.66,0,0,0,1.42-.23,20.37,20.37,0,0,0,2,.67,7.75,7.75,0,0,0,2,.23,1.09,1.09,0,0,1,1,.52c.2.35.4.52.6.52.8,0,1.29-.24,1.49-.74a11.54,11.54,0,0,1,2.62.82,6.44,6.44,0,0,0,2.76.52,22.8,22.8,0,0,0,2.53-.15A23.11,23.11,0,0,1,593,241a13.24,13.24,0,0,1,2,.15,12.15,12.15,0,0,0,1.86.15,12.49,12.49,0,0,0,2.62-.6c1.34-.39,2.26-.69,2.76-.89a2.43,2.43,0,0,0,1.79-1.35h1.64a7.31,7.31,0,0,1,3.28-2.31,13.91,13.91,0,0,0,3.59-1.86h.89a1.22,1.22,0,0,0,.9-.3,2,2,0,0,0,1.27-1.27c.24-.65.47-1.22.67-1.72.5.2.79.13.89-.22s.45-.47,1-.38a1.93,1.93,0,0,0,0-1.49,2.52,2.52,0,0,0,1.86-1.64,10.29,10.29,0,0,1,1.12-2.39,2.37,2.37,0,0,1-.15-1.42,6.44,6.44,0,0,0,.15-1.42,3.13,3.13,0,0,1-.15-1.56,1.82,1.82,0,0,0,.15-.67,13.45,13.45,0,0,0-.29-2.39,32,32,0,0,0-.83-3.14,25,25,0,0,0-1.19-3.06,11.5,11.5,0,0,0-1.27-2.16c.1-1.1-.07-1.82-.52-2.17a3.12,3.12,0,0,1-1-1.86l-1-.52-1.49-.82a11,11,0,0,1-1.42-.9,9.08,9.08,0,0,1-.75-.6,4.93,4.93,0,0,0-3.13-.89,3,3,0,0,1-2.69-1.35,2.45,2.45,0,0,0-1,.38,2.87,2.87,0,0,1-1.42.37,2.56,2.56,0,0,0-.37-.9,8.86,8.86,0,0,1-.52-.74,12.72,12.72,0,0,1-4.11-1.35,8.88,8.88,0,0,0-4.1-1,3.46,3.46,0,0,0-1.5.37,3.26,3.26,0,0,1-1.49.38,3.22,3.22,0,0,1-1-.15,2.83,2.83,0,0,0-.9-.15,5.43,5.43,0,0,0-1.34.15,4.93,4.93,0,0,1-1.2.15,6.11,6.11,0,0,1-1.94-.3,6,6,0,0,0-1.94-.3,2.73,2.73,0,0,0-.89.15,2.83,2.83,0,0,1-.9.15,4.67,4.67,0,0,1-2.31-.53,5.53,5.53,0,0,0-2.91-.37,1.5,1.5,0,0,1-1.2-.52,2.32,2.32,0,0,0-1.79-.52,8.76,8.76,0,0,1-1.57-.15,2.6,2.6,0,0,1-1.41-.75,3.68,3.68,0,0,1-2.47-.15A13.49,13.49,0,0,1,566,193c-.49-.45-1-.89-1.41-1.34a4.46,4.46,0,0,1-.82-1q-.6.15-.75-.15t-.9-.15a13.12,13.12,0,0,0-2.23-2.76,9.13,9.13,0,0,1-2.09-2.91,4.66,4.66,0,0,0-1.95-1.2,2.31,2.31,0,0,0-.22-1,1.48,1.48,0,0,1-.07-1.05,6.06,6.06,0,0,1-2.54-4.77,10.85,10.85,0,0,1-.67-1.27,2.3,2.3,0,0,0-1-1c.19-.8.42-1.72.67-2.76a2.21,2.21,0,0,0-.82-2.47,5.91,5.91,0,0,0,1.42-3.5,6.27,6.27,0,0,1,1.26-3.51l.3-1.49a3.79,3.79,0,0,0,0-1.5c.5-.09,1-.59,1.64-1.49a6.64,6.64,0,0,0,1-2.09,2.79,2.79,0,0,0,2.09-1.49,4.76,4.76,0,0,1,1.79-1.94,5.54,5.54,0,0,1,1.19-2.54,17.73,17.73,0,0,0,1.65-2.24,23.07,23.07,0,0,1,1.56-2.91,6.6,6.6,0,0,1,2.47-2.16,5.14,5.14,0,0,0,2.53-.38,3,3,0,0,1,2.09-.22,3.89,3.89,0,0,0,.83-.75,1.75,1.75,0,0,1,1-.59,4.69,4.69,0,0,1,2.09-1,9.06,9.06,0,0,0,1.35.07,6.55,6.55,0,0,0,3.51-.67,3.66,3.66,0,0,1,2.16-.67,3.3,3.3,0,0,1,1.19.22,3.39,3.39,0,0,0,1.2.22,24.53,24.53,0,0,0,3-.22q1.8-.23,3.66-.3t3.51,0a6.08,6.08,0,0,1,2.69.67,2.17,2.17,0,0,0,1.56.3,2.79,2.79,0,0,1,1.57.15,1.93,1.93,0,0,1,1.05.9,2.82,2.82,0,0,0,.89,1,12.55,12.55,0,0,1,2.24.3c1,.2,2,.45,3.06.75s2,.59,3,.89a7.16,7.16,0,0,1,2,.9,2.56,2.56,0,0,1,1.49.15,2.59,2.59,0,0,0,1.5.15A1.33,1.33,0,0,0,618,145.4c.6,0,1,.47,1.19,1.27l.9.44c.4.2.82.43,1.27.67a9.51,9.51,0,0,0,1.27.6,3.18,3.18,0,0,0,.74.23,2,2,0,0,0,.9-.23,2,2,0,0,1,.89-.22,15.22,15.22,0,0,0,1.2,3.06c.5.94,1,1.86,1.49,2.76a22.19,22.19,0,0,0-.45,2.24c-.1.7-.2,1.44-.29,2.24a22.11,22.11,0,0,0-2,1,4.48,4.48,0,0,1-2.16.52,3.63,3.63,0,0,1-1.65-.37,3.6,3.6,0,0,0-1.64-.38,3.2,3.2,0,0,0-1.27.23,2.13,2.13,0,0,1-1.27.07,8.69,8.69,0,0,1-3.58-3.13,1.67,1.67,0,0,1-1.42-.23,12.6,12.6,0,0,1-1-1.12,3.59,3.59,0,0,0-.74.45q-.15.15-.9-.15a2.36,2.36,0,0,0-1.34-1.19,4.72,4.72,0,0,0-1.79-.45,1.53,1.53,0,0,0-.82.22,1.59,1.59,0,0,1-.82.23,2.89,2.89,0,0,1-1.5-.45,2.54,2.54,0,0,0-1.19-.45c-1,.2-1.49.15-1.49-.15A3.08,3.08,0,0,0,600.34,152.19Z"/></svg>